<svg width="70" height="70" viewBox="0 0 70 70" fill="none" xmlns="http://www.w3.org/2000/svg">
<circle cx="35" cy="35" r="35" fill="#D0E1FF"/>
<g clip-path="url(#clip0_634_7110)">
<path d="M43.734 30.4281C43.2795 29.9744 42.7962 29.4838 42.3034 29.0031C41.6327 28.3488 40.6805 28.3344 40.057 28.96C39.4322 29.5875 39.4554 30.5256 40.1211 31.1931C40.9621 32.0356 41.8062 32.875 42.6541 33.7113C43.3424 34.39 44.2582 34.395 44.9446 33.715C46.7994 31.8775 48.6505 30.0363 50.4984 28.1925C51.1477 27.5444 51.166 26.6006 50.5575 25.9819C49.9346 25.3488 48.983 25.3562 48.3136 26.0087C48.1206 26.1969 47.9509 26.4088 47.8013 26.5763C47.3174 26.3138 46.9151 26.0706 46.4902 25.875C46.2821 25.7787 46.1998 25.6669 46.2281 25.4525C46.2375 25.3806 46.23 25.3069 46.2293 25.2337C46.2243 24.1325 45.5976 23.5056 44.4983 23.505C43.0533 23.5044 41.6082 23.505 40.1626 23.505H39.8074C39.8074 23.305 39.8093 23.1494 39.8074 22.9944C39.7974 22.3525 39.5636 21.8038 39.0375 21.4281C38.7728 21.2387 38.4429 21.14 38.1424 21H32.0455C32.0203 21.0169 31.9971 21.0413 31.9688 21.0494C30.9266 21.365 30.4169 22.0413 30.4144 23.1188C30.4131 23.785 30.4112 24.4519 30.4156 25.1181C30.42 25.8325 30.8726 26.2962 31.5929 26.2987C33.9393 26.305 36.2857 26.305 38.6314 26.2981C39.3454 26.2962 39.7848 25.8538 39.8068 25.1481C39.8137 24.9231 39.8081 24.6975 39.8081 24.4588C39.9438 24.4519 40.0362 24.4431 40.1286 24.4431C41.5843 24.4419 43.0401 24.4413 44.4964 24.4425C45.1357 24.4438 45.4053 24.8119 45.2356 25.445C41.6221 24.7463 38.2254 27.4694 38.099 31.1194C38.0431 32.7425 38.5711 34.18 39.6912 35.3644C41.2041 36.9637 43.0866 37.5294 45.267 37.19C45.2739 37.2956 45.284 37.3775 45.284 37.4594C45.2846 42.0731 45.2852 46.6875 45.2834 51.3019C45.2827 51.86 45.0665 52.0619 44.4895 52.0619C38.2361 52.0625 31.9826 52.0625 25.7292 52.0619C25.144 52.0619 24.9435 51.8581 24.9435 51.2656V25.2369C24.9435 24.6488 25.1471 24.4438 25.7336 24.4425C26.6971 24.4413 27.6607 24.4444 28.6243 24.4406C28.9486 24.4394 29.1472 24.2631 29.156 23.9919C29.1648 23.695 28.9555 23.5075 28.5928 23.5062C27.6192 23.5025 26.645 23.5031 25.6707 23.5056C24.6493 23.5075 24.0007 24.1506 24.0007 25.1638C23.9994 33.8925 24 42.6206 24.0019 51.3487C24.0019 51.4937 24.0113 51.6412 24.0415 51.7825C24.181 52.4469 24.6499 52.7931 25.2571 53H44.9936C45.9333 52.6794 46.2444 52.0044 46.24 51.0475C46.2168 46.4762 46.2325 41.9044 46.223 37.3325C46.2224 37.0275 46.2972 36.8756 46.5964 36.7306C48.7215 35.7031 49.8825 34.0006 50.0786 31.6569C50.1094 31.2887 49.9346 31.0725 49.6405 31.0581C49.3419 31.0431 49.164 31.2362 49.1376 31.6044C48.9528 34.2181 47.01 36.1494 44.377 36.3381C41.4461 36.5481 38.864 34.0156 39.04 31.1038C39.2254 28.0438 41.9011 25.8981 44.9458 26.3787C45.707 26.4987 46.4053 26.7844 46.9704 27.21C45.8874 28.2869 44.8176 29.3506 43.734 30.4281ZM38.517 25.3637C37.3869 25.3537 36.2561 25.3594 35.126 25.3594C33.9959 25.3594 32.8651 25.3525 31.735 25.3644C31.4515 25.3675 31.344 25.2831 31.3522 24.99C31.371 24.3456 31.3547 23.7 31.3591 23.055C31.3635 22.3675 31.7871 21.9406 32.4748 21.9388C34.2328 21.935 35.9909 21.935 37.7496 21.9388C38.4278 21.9406 38.8483 22.3481 38.8602 23.0244C38.8722 23.69 38.8552 24.3562 38.8671 25.0219C38.8722 25.2819 38.7735 25.3656 38.517 25.3637ZM48.8202 26.8319C48.9013 26.7506 48.9799 26.665 49.0697 26.5944C49.3212 26.3969 49.6493 26.4138 49.8705 26.6281C50.0842 26.835 50.1106 27.1794 49.9252 27.4262C49.8693 27.5012 49.7989 27.565 49.7322 27.6312C47.9472 29.4062 46.1627 31.1812 44.377 32.9556C43.942 33.3881 43.6623 33.3894 43.2324 32.9625C42.4172 32.1531 41.6001 31.3456 40.7899 30.5306C40.4159 30.155 40.5127 29.63 40.974 29.4762C41.0325 29.4562 41.0953 29.4488 41.2292 29.42C41.3505 29.4975 41.5341 29.5781 41.6692 29.7081C42.2412 30.2581 42.7974 30.825 43.3625 31.3825C43.6975 31.7137 43.9075 31.7144 44.2419 31.3819C45.7686 29.8663 47.2941 28.3488 48.8202 26.8319Z" fill="#111827"/>
<path d="M28.0288 38.1369C26.9886 38.1312 26.1325 38.9731 26.1218 40.0131C26.1111 41.0694 26.959 41.93 28.0137 41.9337C29.059 41.9369 29.9113 41.0994 29.9208 40.0594C29.9302 39.0006 29.0867 38.1431 28.0288 38.1369ZM28.0269 40.9944C27.5021 40.9981 27.069 40.5681 27.0659 40.0419C27.0634 39.5162 27.4914 39.0806 28.0156 39.0762C28.5361 39.0719 28.9748 39.5075 28.9767 40.0306C28.9792 40.5575 28.5518 40.9912 28.0269 40.9944Z" fill="#111827"/>
<path d="M27.9967 32.3775C26.9546 32.3881 26.1173 33.2381 26.1217 34.2819C26.1261 35.3225 26.9715 36.1669 28.0143 36.1725C29.0677 36.1775 29.9244 35.32 29.9207 34.2644C29.9169 33.2087 29.0583 32.3669 27.9967 32.3775ZM28.0099 35.2331C27.4857 35.225 27.062 34.7887 27.0664 34.2619C27.0708 33.735 27.5052 33.3094 28.0325 33.3156C28.558 33.3219 28.981 33.7556 28.9766 34.2837C28.9722 34.8075 28.531 35.2406 28.0099 35.2331Z" fill="#111827"/>
<path d="M28.0445 43.8412C27.0042 43.8237 26.1399 44.6581 26.1223 45.6975C26.1047 46.745 26.93 47.6081 27.9671 47.6275C29.0401 47.6469 29.9043 46.8269 29.92 45.775C29.9364 44.7125 29.1086 43.86 28.0445 43.8412ZM28.0099 46.6894C27.48 46.6837 27.0608 46.2556 27.0664 45.725C27.0715 45.1994 27.507 44.7744 28.0331 44.7812C28.5624 44.7887 28.981 45.2175 28.976 45.7481C28.9716 46.2762 28.5423 46.6944 28.0099 46.6894Z" fill="#111827"/>
<path d="M38.9888 39.38C38.8725 39.4169 38.7418 39.42 38.618 39.42C36.1811 39.4225 33.7442 39.4219 31.3073 39.4219C31.2444 39.4219 31.181 39.425 31.1187 39.4194C30.812 39.3919 30.6134 39.1881 30.6297 38.9194C30.6454 38.66 30.8365 38.4881 31.1439 38.4869C32.4305 38.4825 33.7165 38.485 35.0032 38.485C36.2376 38.4844 37.4715 38.4775 38.706 38.4925C38.875 38.4944 39.0869 38.5631 39.2025 38.6775C39.4238 38.8969 39.2937 39.2819 38.9888 39.38Z" fill="#111827"/>
<path d="M38.9914 47.2556C38.8663 47.2969 38.7249 47.2994 38.5904 47.2994C36.1742 47.3019 33.7581 47.3013 31.3413 47.3013C31.2684 47.3013 31.1948 47.3044 31.1219 47.2981C30.8139 47.2713 30.6153 47.0688 30.6298 46.8006C30.6436 46.5413 30.834 46.365 31.1402 46.3631C32.2697 46.3569 33.3998 46.36 34.5293 46.3594H34.9686C36.2132 46.3594 37.4583 46.3525 38.7029 46.3675C38.8726 46.3694 39.0844 46.4375 39.2013 46.5519C39.4226 46.7687 39.2956 47.1563 38.9914 47.2556Z" fill="#111827"/>
<path d="M37.3207 44.6362C37.3282 44.9331 37.102 45.1187 36.7185 45.1194C34.8863 45.1212 33.0535 45.1212 31.2212 45.1194C30.8535 45.1187 30.6361 44.9444 30.6285 44.6587C30.6203 44.3575 30.8366 44.1837 31.23 44.1831C32.1408 44.1819 33.0516 44.1825 33.963 44.1825C34.8844 44.1825 35.8059 44.1819 36.7273 44.1831C37.0982 44.1837 37.3144 44.3519 37.3207 44.6362Z" fill="#111827"/>
<path d="M37.3175 35.4594C37.2874 35.7188 37.1359 35.8788 36.865 35.8894C36.5828 35.9006 36.2999 35.8956 36.0177 35.8956C35.337 35.8963 34.6569 35.8956 33.9762 35.8956V35.8938C33.0239 35.8938 32.071 35.8988 31.1188 35.8913C30.819 35.8888 30.6304 35.6956 30.6298 35.4331C30.6285 35.1744 30.8183 34.9888 31.115 34.9619C31.1873 34.955 31.2615 34.9588 31.3344 34.9581H32.7159C34.0038 34.9581 35.2911 34.9581 36.579 34.9588C36.6833 34.9588 36.7896 34.9544 36.892 34.9694C37.1604 35.0088 37.3465 35.2169 37.3175 35.4594Z" fill="#111827"/>
<path d="M37.3206 33.255C37.3194 33.5594 37.0981 33.7213 36.6732 33.7225C35.7625 33.7238 34.8517 33.7225 33.9409 33.7225C33.0622 33.7225 32.1829 33.7238 31.3035 33.7213C31.1891 33.7213 31.0389 33.7463 30.9685 33.6856C30.8315 33.5688 30.6762 33.4119 30.6448 33.2488C30.6021 33.03 30.7561 32.8544 30.9943 32.8069C31.1062 32.7844 31.2231 32.7863 31.3381 32.7863C33.0968 32.785 34.8548 32.785 36.6135 32.785C36.6343 32.785 36.655 32.785 36.6764 32.7856C37.0969 32.79 37.3219 32.9544 37.3206 33.255Z" fill="#111827"/>
<path d="M35.4369 41.1125C35.4451 41.4094 35.2251 41.5931 34.836 41.5962C34.2288 41.6012 33.621 41.5975 33.0138 41.5975C32.4174 41.5975 31.8202 41.6012 31.2237 41.5962C30.8485 41.5931 30.6373 41.4231 30.6291 41.1375C30.621 40.8406 30.8397 40.6556 31.23 40.6544C32.4337 40.65 33.638 40.65 34.8423 40.6544C35.2175 40.6556 35.4287 40.8281 35.4369 41.1125Z" fill="#111827"/>
<path d="M30.6636 28.4181C30.6574 28.6987 30.4512 28.8731 30.1049 28.8762C29.6026 28.8806 29.0998 28.8769 28.5976 28.8769C28.1054 28.8769 27.6133 28.88 27.1218 28.8762C26.7566 28.8731 26.5492 28.6937 26.5554 28.3962C26.5617 28.1144 26.7654 27.94 27.1123 27.9387C28.1067 27.9356 29.1011 27.9356 30.0954 27.9387C30.4587 27.9394 30.6706 28.1244 30.6636 28.4181Z" fill="#111827"/>
</g>
<defs>
<clipPath id="clip0_634_7110">
<rect width="35" height="35" fill="white" transform="translate(17.5 17.5)"/>
</clipPath>
</defs>
</svg>
