<svg width="70" height="70" viewBox="0 0 70 70" fill="none" xmlns="http://www.w3.org/2000/svg">
<circle cx="35" cy="35" r="35" fill="#DAF3E1"/>
<g clip-path="url(#clip0_634_7130)">
<path d="M52.4971 26.8945C52.4971 25.809 51.7475 25.0775 50.6528 25.0697C50.3048 25.0677 49.9558 25.0697 49.6087 25.0697V24.5075C51.1827 24.381 51.8729 23.8674 51.9128 22.8111C51.9303 22.3675 51.7942 21.9736 51.5181 21.6283C51.0232 21.0116 50.332 20.9386 49.5824 20.9872V18.3259C49.5815 17.5789 49.2879 17.362 48.5762 17.5818C46.3518 18.2695 44.1284 18.963 41.8992 19.6381C41.557 19.7422 41.1905 19.8025 40.8327 19.8093C39.703 19.8307 38.5733 19.8142 37.4426 19.818C36.9653 19.82 36.7592 20.032 36.7504 20.5087C36.7475 20.6614 36.7495 20.8131 36.7495 20.9843C36.3586 20.9843 36.0193 20.9804 35.681 20.9853C35.2231 20.9921 35.0053 21.2012 35.0015 21.6516C34.9947 22.3695 34.9956 23.0863 35.0015 23.8042C35.0053 24.275 35.2202 24.4793 35.7034 24.4851C36.0407 24.489 36.3781 24.4861 36.7281 24.4861V25.0434H33.2496C33.2496 23.3402 33.2505 21.6642 33.2486 19.9873C33.2486 19.4358 33.0503 19.2344 32.5078 19.2344C28.7289 19.2325 24.9499 19.2325 21.17 19.2344C20.6071 19.2344 20.4176 19.4309 20.4166 20.0106C20.4156 21.5553 20.4166 23.099 20.4166 24.6427V25.0697H19.4804C18.1932 25.0707 17.5 25.7632 17.5 27.0511V45.2515C17.5 46.5588 18.1903 47.2474 19.5027 47.2474H32.6361V48.9983C31.5006 48.9983 30.3952 48.9964 29.2888 48.9993C28.8047 49.0012 28.5889 49.2084 28.585 49.6773C28.5791 50.3951 28.5782 51.112 28.585 51.8299C28.5889 52.2812 28.8057 52.4981 29.2626 52.4981C33.0901 52.501 36.9177 52.501 40.7452 52.4981C41.1963 52.4981 41.4102 52.2764 41.4141 51.8202C41.4199 51.1033 41.4209 50.3854 41.4141 49.6685C41.4102 49.2172 41.1924 49.0022 40.7364 49.0003C39.7399 48.9954 38.7434 48.9983 37.7469 48.9983H37.3464V47.2474H37.8199C42.0975 47.2474 46.3752 47.2494 50.6519 47.2465C51.7456 47.2455 52.4971 46.5062 52.4971 45.4226C52.501 39.2469 52.501 33.0702 52.4971 26.8945ZM36.7242 23.2955H36.1856V22.1681H36.7242V23.2955ZM49.5951 22.171C49.9684 22.1632 50.3738 22.0232 50.6198 22.4045C50.717 22.5552 50.7345 22.8402 50.6587 23.0037C50.4467 23.455 50.0024 23.2877 49.5951 23.3237V22.171ZM42.011 20.8316C44.1255 20.1789 46.243 19.5253 48.3905 18.8628V26.6066C46.2605 25.95 44.1372 25.2954 42.011 24.6398V20.8316ZM37.9365 21.0018H40.8055V24.4627H37.9365V21.0018ZM39.5737 25.6767C39.4356 26.6377 39.2995 27.5832 39.1605 28.5491H38.5237V25.6767H39.5737ZM21.6027 20.4299H32.0567V28.5549H21.6027V20.4299ZM40.2251 50.1792V51.3124H29.7681V50.1792H40.2251ZM33.8533 48.975V47.265H36.1389V48.975H33.8533ZM51.3236 45.5433C51.2877 45.8613 51.0923 46.0432 50.7734 46.0753C50.6412 46.089 50.506 46.0802 50.3728 46.0802C40.1444 46.0802 29.9159 46.0744 19.6884 46.0899C18.6939 46.0919 18.5908 45.7466 18.6958 44.9266H51.3275C51.3275 45.1396 51.346 45.3439 51.3236 45.5433ZM51.3324 27.0073V43.7243H18.6666V27.089C18.6666 26.3974 18.829 26.2379 19.529 26.2369H20.3991C20.4059 26.3692 20.4156 26.486 20.4156 26.6017C20.4176 27.4285 20.4117 28.2553 20.4185 29.0821C20.4224 29.513 20.6421 29.7358 21.0728 29.7368C24.913 29.7397 28.7532 29.7397 32.5924 29.7368C33.0347 29.7358 33.2457 29.5062 33.2476 29.0452C33.2525 28.124 33.2496 27.2019 33.2496 26.2554H37.3328V28.8895C37.3328 29.5782 37.4971 29.7387 38.198 29.7387C38.6472 29.7387 39.0963 29.7416 39.5465 29.7377C39.9976 29.7338 40.1901 29.5685 40.2542 29.1288C40.403 28.1075 40.5469 27.0851 40.6946 26.0638C40.7141 25.9335 40.7452 25.806 40.7812 25.6212C41.0777 25.664 41.3713 25.6699 41.6416 25.7516C43.9515 26.4548 46.2556 27.1707 48.5626 27.8837C49.2976 28.1104 49.5815 27.8983 49.5824 27.1221V26.2486C50.0219 26.2486 50.4506 26.199 50.857 26.272C51.0368 26.3041 51.1817 26.5764 51.3198 26.7564C51.3616 26.8108 51.3324 26.9217 51.3324 27.0073Z" fill="#081733"/>
<path d="M35.3641 32.0731H20.6353C20.0141 32.0731 19.8333 32.254 19.8333 32.8746V41.7749C19.8333 42.3965 20.0151 42.5784 20.6353 42.5784H35.3631C35.9834 42.5784 36.1661 42.3955 36.1661 41.7759V32.8756C36.1661 32.255 35.9843 32.0731 35.3641 32.0731ZM33.4411 33.2598C33.3244 33.3444 33.2505 33.4067 33.1679 33.4573C31.5375 34.464 29.9042 35.4669 28.2748 36.4746C28.1105 36.5758 27.9812 36.6371 27.7839 36.5135C26.0952 35.462 24.3997 34.4222 22.7061 33.3785C22.6691 33.3551 22.6371 33.324 22.5564 33.2598H33.4411ZM34.981 41.3897H21.0203V33.7258C21.1545 33.8026 21.2663 33.8629 21.3742 33.929C23.3993 35.1761 25.4292 36.4143 27.4426 37.6798C27.8539 37.9386 28.1727 37.921 28.5733 37.6701C30.5886 36.4075 32.6186 35.1673 34.6437 33.9203C34.7428 33.859 34.8478 33.8065 34.981 33.7326V41.3897Z" fill="#081733"/>
<path d="M50.1638 33.9359C50.1628 33.4583 49.9499 33.2501 49.4755 33.2413C49.3228 33.2384 49.1712 33.2404 48.9991 33.2404C48.9991 32.6567 49.003 32.1237 48.9972 31.5897C48.9923 31.1315 48.7823 30.9088 48.3341 30.9078C44.8848 30.9049 41.4364 30.9049 37.987 30.9078C37.5564 30.9088 37.3357 31.1315 37.3347 31.5634C37.3308 33.8483 37.3308 36.1322 37.3347 38.4171C37.3357 38.849 37.5564 39.0649 37.9851 39.0747C38.3361 39.0825 38.6861 39.0766 39.0827 39.0766C39.0827 39.6359 39.0808 40.1447 39.0827 40.6534C39.0856 41.2059 39.281 41.4101 39.8196 41.4101C43.0259 41.4121 46.2322 41.4121 49.4385 41.4101C49.9596 41.4101 50.1638 41.203 50.1648 40.6796C50.1677 39.6709 50.1657 38.6622 50.1657 37.6535C50.1657 36.4143 50.1687 35.1751 50.1638 33.9359ZM39.0827 34.037C39.0817 35.3103 39.0827 36.5845 39.0827 37.8958H38.5198V32.0916H47.8023V33.2404H39.8896C39.2655 33.2404 39.0837 33.4203 39.0827 34.037ZM48.9709 40.2186H40.2659V34.4261H48.9709V40.2186Z" fill="#081733"/>
<path d="M29.353 23.9432C28.2496 23.3576 27.1277 22.8061 26.0067 22.2556C25.4866 21.9997 25.0909 22.2614 25.0841 22.8518C25.0783 23.3868 25.0832 23.9218 25.0832 24.4558C25.0832 25.0151 25.0773 25.5744 25.0851 26.1338C25.0919 26.7028 25.4876 26.9703 25.9863 26.7261C27.1199 26.1717 28.2506 25.6114 29.3666 25.0229C29.5378 24.9315 29.7273 24.6727 29.7196 24.4986C29.7118 24.3041 29.5319 24.0385 29.353 23.9432ZM26.2624 25.2885V23.6893C26.7864 23.95 27.2803 24.1961 27.8559 24.4821C27.3027 24.7622 26.8069 25.0122 26.2624 25.2885Z" fill="#081733"/>
<path d="M47.8091 35.6011H43.7667V36.7236H47.8091V35.6011Z" fill="#081733"/>
<path d="M47.8247 37.9327H44.9431V39.0465H47.8247V37.9327Z" fill="#081733"/>
<path d="M43.7318 37.9337H41.4442V39.0591H43.7318V37.9337Z" fill="#081733"/>
<path d="M42.5554 35.5934H41.4335V36.7178H42.5554V35.5934Z" fill="#081733"/>
</g>
<defs>
<clipPath id="clip0_634_7130">
<rect width="35" height="35" fill="white" transform="translate(17.5 17.5)"/>
</clipPath>
</defs>
</svg>
