<svg xmlns="http://www.w3.org/2000/svg" width="70" height="70" fill="none" viewBox="0 0 70 70"><circle cx="35" cy="35" r="35" fill="#ffebb8"/><path fill="#111827" d="M48.917 45.635c.051-.466.138-.899.14-1.333.013-2.721.006-5.444.006-8.165 0-1.314-.771-2.113-2.039-2.113-3.242 0-6.483-.005-9.725.006-.522.002-1.045.08-1.567.118-.077.007-.155-.006-.232-.013-.398-.036-.794-.09-1.193-.107-.465-.018-.933-.004-1.396-.004-.03-.352-.031-.354.19-.539.77-.642 1.27-1.463 1.524-2.448.034-.131.062-.265.09-.388 1.068-.095 1.761-.704 1.903-1.672.04-.266.027-.543.021-.814-.02-.886.043-1.786-.087-2.655-.525-3.507-3.563-5.852-7-5.467-2.692.303-5.04 2.515-5.431 5.266-.168 1.177-.12 2.39-.11 3.587.003.324.184.68.367.963.353.55.909.765 1.54.792.213 1.152.728 2.112 1.617 2.836.18.146.244.293.17.54-.556 0-1.12-.005-1.684.002-2.768.031-5.05 2.372-5.079 5.226-.016 1.643-.024 3.287.011 4.93.009.405.197.806.309 1.208.022.08.074.149.126.249h-.771c-.461.002-.616.16-.616.634q-.002 1.511 0 3.024c0 .556.135.697.672.697q14.324-.001 28.648.005c.285.001.513-.062.68-.307v-3.75c-.287-.466-.768-.237-1.084-.308M35.47 45.31v-9.161c0-.802.346-1.157 1.127-1.157h10.425c.753 0 1.103.366 1.103 1.152v8.345c0 .786-.35 1.15-1.105 1.15H35.47zm-.692-15.663v-1.896c.508-.046.943.483.927.966-.017.521-.405.922-.927.93m-8.933.006c-.539-.032-.913-.429-.923-.948-.009-.41.327-.96.923-.96zm-.92-2.614c-.07-2.226.686-3.992 2.47-5.175 1.823-1.21 3.739-1.239 5.628-.142 1.805 1.048 2.806 3.071 2.67 5.216-.365-.058-.734-.108-1.098-.183-.08-.016-.155-.112-.212-.187-.486-.644-.966-1.292-1.45-1.937-.276-.364-.545-.387-.855-.061-1.433 1.504-3.173 2.223-5.21 2.195q-.117-.002-.234 0c-.57.01-1.153-.08-1.71.274m1.945 3.483c-.096-.904-.017-1.828-.017-2.78.992.008 2.008-.14 2.983-.517.97-.375 1.83-.935 2.611-1.66.448.601.866 1.159 1.28 1.72.049.067.097.159.097.239-.011.996.04 2-.065 2.986-.185 1.718-1.739 3.034-3.454 3.03-1.699-.003-3.253-1.32-3.434-3.018m4.323 5.65c-.588.385-1.203.379-1.787-.018-.678-.463-.797-1.16-.714-1.961 1.085.42 2.16.417 3.242.002.088.815-.043 1.522-.74 1.977m-9.317 3.267c.005-2.544 1.851-4.442 4.323-4.447h1.514c.543 1.684 1.317 2.411 2.573 2.419a2.5 2.5 0 0 0 1.762-.695c.491-.457.748-1.044.84-1.713h1.86c-.384 1.024-.188 2.077-.208 3.11-.031 1.583-.008 3.166-.008 4.749v.356c-.891 0-1.757.004-2.622-.006-.075 0-.156-.074-.223-.128a3.56 3.56 0 0 0-2.274-.829c-1.543-.01-3.085-.004-4.628-.002-.347 0-.558.183-.563.474-.005.302.212.491.576.492q1.875.002 3.75 0h.338v2.407c-.096.005-.19.013-.284.013q-2.593.002-5.185 0c-.97 0-1.54-.594-1.541-1.603q-.003-2.298 0-4.597m12.642 4.767v1.418H33.14l-.457-1.419zm-2.4 1.433-2.135-.001c-.037 0-.073-.009-.123-.016v-2.326c1.057.071 2.196 1.246 2.258 2.343m16.93 3.367H20.95v-2.382H49.05z"/><path fill="#111827" d="M41.795 37.896c-1.28 0-2.336 1.083-2.34 2.4-.005 1.353 1.052 2.444 2.362 2.44 1.276-.005 2.322-1.092 2.323-2.417.002-1.338-1.048-2.423-2.345-2.423m-.022 3.87c-.774-.013-1.396-.685-1.38-1.492.016-.783.666-1.424 1.43-1.408.777.015 1.397.685 1.379 1.49-.018.787-.662 1.422-1.43 1.41"/></svg>