<svg xmlns="http://www.w3.org/2000/svg" width="70" height="70" fill="none" viewBox="0 0 70 70"><circle cx="35" cy="35" r="35" fill="#ffdad3"/><path fill="#111827" d="M49.995 24.406c-.046-.741-.65-1.358-1.392-1.399-.374-.02-.75-.014-1.125-.002-.305.009-.484.207-.482.498.002.29.182.48.49.493.26.011.52.004.78.004.602 0 .733.13.733.731v14.253H21V24.653c0-.494.16-.65.655-.653.28-.001.562.006.843-.003.324-.012.512-.209.504-.512-.005-.286-.189-.47-.5-.482-.26-.01-.52-.003-.781-.003-1.13 0-1.721.586-1.721 1.706v17.591c0 1.101.598 1.701 1.698 1.701h26.591c1.123 0 1.71-.592 1.71-1.719v-17.56c0-.104.003-.209-.004-.313m-.997 18.007c-.003.398-.179.572-.569.583H21.782c-.665 0-.782-.115-.782-.776v-2.21h27.978c.008.057.02.106.02.154.001.75.004 1.5 0 2.25"/><path fill="#111827" d="M44.314 20h-18.62C24.592 20 24 20.595 24 21.7v15.558c0 .517.152.74.504.737.35-.002.496-.22.496-.744V25.013h19.999V37.23c0 .114-.007.23.006.344.03.261.224.426.488.428.346.002.505-.207.505-.67V21.68c0-1.08-.602-1.68-1.684-1.68m.684 3.989H25.022c-.008-.078-.02-.147-.02-.217q-.003-1.077 0-2.155c.001-.451.169-.612.626-.617h18.618c.626 0 .753.125.754.741zM41.994 48.408a1.46 1.46 0 0 0-1.083-1.342 2.6 2.6 0 0 0-.803-.06c-.322.023-.572-.073-.761-.32-.366-.477-.73-.954-1.078-1.443-.184-.257-.445-.357-.694-.22-.235.13-.316.404-.195.676q.081.186.191.358c.205.306.419.607.643.93h-6.406c.266-.416.53-.8.762-1.203.194-.338.113-.637-.168-.773-.272-.131-.522-.009-.713.31-.186.31-.387.615-.604.905-.395.527-.846.865-1.594.793-.807-.077-1.461.63-1.488 1.445-.008.26-.002.52-.002.78 0 .618.135.754.748.754h11.935c.26 0 .52.006.78-.003.334-.012.524-.196.533-.526.009-.354.013-.708-.003-1.061m-1.013.569h-11.98c0-.146-.002-.27 0-.394.009-.41.18-.584.596-.584q2.64-.002 5.278-.001h5.247c.82 0 .928.12.86.979"/><path fill="#111827" d="M37.03 27.415c-.046.173-.067.274-.1.372q-1.458 4.374-2.92 8.747c-.129.386-.36.536-.658.44-.302-.097-.417-.351-.3-.703.416-1.263.838-2.524 1.258-3.785q.831-2.498 1.67-4.994c.045-.134.102-.31.207-.366.147-.078.367-.122.513-.068.144.054.236.249.33.357M31.277 34.94c-.212.136-.415.092-.602-.063L28.71 33.24c-.32-.267-.642-.53-.959-.8-.341-.291-.339-.596.008-.887q1.399-1.17 2.802-2.34c.323-.27.617-.284.82-.042.208.249.149.536-.17.803L28.782 32c.84.7 1.648 1.368 2.45 2.045.106.09.218.206.264.332.083.231-.014.431-.219.564M42.272 32.419q-1.457 1.227-2.924 2.438c-.268.222-.551.2-.744-.033-.191-.232-.155-.515.11-.737.82-.688 1.645-1.371 2.505-2.087-.845-.706-1.66-1.383-2.472-2.064-.316-.264-.334-.638-.04-.842.216-.149.433-.129.633.036.983.818 1.968 1.636 2.945 2.462.299.253.291.571-.013.827M36.539 41.505c-.002.293-.202.484-.529.49-.333.006-.666 0-1 0-.323 0-.645.007-.969-.002-.322-.008-.528-.21-.526-.496.001-.282.213-.492.532-.495q.985-.014 1.968 0c.321.005.525.215.524.503M43.99 22.51c-.008.308-.222.488-.6.489q-1.451.002-2.904 0-1.436.002-2.873 0c-.414 0-.616-.163-.618-.49-.003-.33.205-.508.608-.508q2.889-.003 5.778 0c.396 0 .616.189.608.51M26.997 22.504a.504.504 0 0 1-.503.492.503.503 0 0 1-.492-.503.5.5 0 0 1 .503-.491.5.5 0 0 1 .492.502M28.997 22.488a.504.504 0 0 1-.487.508.5.5 0 0 1-.508-.487.5.5 0 0 1 .487-.508.5.5 0 0 1 .508.487M30.997 22.51a.504.504 0 0 1-.509.486.503.503 0 0 1-.486-.508.5.5 0 0 1 .509-.486.503.503 0 0 1 .486.508"/></svg>