<svg width="60" height="60" viewBox="0 0 60 60" fill="none" xmlns="http://www.w3.org/2000/svg">
<circle cx="30" cy="30" r="30" fill="#D0DAF9"/>
<g clip-path="url(#clip0_634_7264)">
<path d="M43.9758 23.3581C42.3844 21.829 40.8094 20.2838 39.2281 18.7455C38.2937 17.836 37.2141 17.757 36.15 18.5204C35.2859 19.1401 34.4211 19.7599 33.5586 20.3827C33.1883 20.6503 33.1727 20.8792 33.4984 21.2024C33.6695 21.3712 33.843 21.5385 34.0148 21.708C34.0273 21.721 34.0352 21.7392 34.0578 21.775C34.0055 21.832 33.9531 21.8966 33.893 21.9552C33.0164 22.8091 32.143 23.6653 31.2563 24.5094C31.1531 24.6075 30.9766 24.6774 30.8313 24.6828C30.2656 24.7025 29.6992 24.6972 29.1328 24.6851C29.0195 24.6828 28.8781 24.6402 28.8 24.5664C27.868 23.6729 26.9453 22.7696 26.0211 21.8693C25.9945 21.8426 25.9734 21.8115 25.9203 21.7468C26.1313 21.5484 26.3461 21.3583 26.5469 21.1545C26.8141 20.8845 26.793 20.6351 26.482 20.4108C25.557 19.7424 24.6352 19.0702 23.7 18.417C22.7977 17.7881 21.6898 17.8809 20.8914 18.6314C20.625 18.8824 20.3633 19.1386 20.1047 19.3979C19.8891 19.6154 19.8742 19.8443 20.0523 20.0298C20.2375 20.223 20.4922 20.2154 20.7227 19.9994C20.9758 19.7622 21.2195 19.515 21.4703 19.2755C21.9922 18.7767 22.6297 18.7234 23.2203 19.1325C23.5203 19.3401 23.8141 19.5576 24.093 19.7576C21.6562 22.1286 19.2367 24.4843 16.7953 26.8613C16.5445 26.5161 16.2516 26.1701 16.025 25.7869C15.7359 25.3002 15.8594 24.7383 16.3031 24.3048C17.2945 23.3346 18.2906 22.3688 19.2844 21.4008C19.3531 21.3339 19.4305 21.2701 19.4836 21.1925C19.6133 21.0016 19.6 20.8092 19.4313 20.6488C19.2633 20.4883 19.0664 20.4769 18.8719 20.6077C18.8008 20.6556 18.7422 20.7218 18.6797 20.7826C17.7961 21.6427 16.9211 22.5118 16.025 23.3589C15.5555 23.8037 15.1414 24.2683 15 24.9117V25.596C15.1641 26.1869 15.5484 26.6538 15.9141 27.1313C16.4273 27.802 16.9328 28.478 17.4453 29.1487C17.7117 29.4969 17.9547 29.5167 18.268 29.2141C18.4602 29.0278 18.6406 28.83 18.8172 28.6468C19.0102 28.8293 19.168 28.9791 19.3383 29.1411C19.2984 29.1829 19.2484 29.2384 19.1953 29.2901C17.8508 30.6033 17.3594 32.1781 17.8445 33.9636C18.3273 35.7369 19.5438 36.8706 21.3656 37.3641C21.5602 37.4166 21.6422 37.4934 21.6977 37.6873C22.0125 38.7945 22.7133 39.599 23.7891 40.0742C23.993 40.1647 24.0625 40.2659 24.0531 40.4757C24.0367 40.8651 24.0437 41.2551 24.05 41.6452C24.0617 42.3228 24.4266 42.798 25.0461 42.9547C25.6234 43.1007 26.1805 42.852 26.525 42.2946C26.657 42.0825 27.1523 42.0749 27.2844 42.284C27.8859 43.2375 29.0219 43.2391 29.6211 42.2878C29.7523 42.0779 30.2492 42.081 30.3805 42.2923C30.9633 43.2277 32.1383 43.2345 32.7047 42.3053C32.8523 42.0619 33.3406 42.0733 33.4922 42.3235C33.7766 42.7927 34.1992 43.0299 34.757 42.9851C35.2773 42.9425 35.657 42.6688 35.8461 42.1958C35.9242 41.9981 35.9445 41.7692 35.9469 41.554C35.957 40.5845 35.9563 39.6149 35.9477 38.6454C35.9461 38.4447 36.0063 38.3747 36.2141 38.2979C36.6727 38.1283 37.1023 37.8843 37.5453 37.6744C37.6891 37.6059 37.8328 37.5124 37.9852 37.4926C38.7422 37.393 39.4438 37.1565 40.0852 36.7528C40.3758 36.5703 40.4539 36.3338 40.3031 36.1095C40.1531 35.8844 39.918 35.8684 39.6086 36.0296C39.2531 36.2159 38.8852 36.3802 38.4688 36.5801C38.5523 36.2098 38.6094 35.9262 38.6836 35.6464C38.7 35.5848 38.7656 35.5156 38.8266 35.4874C40.7438 34.5955 41.282 31.9181 39.3914 30.3402C39.5992 30.1539 39.8055 29.9684 40.0305 29.7669C40.7211 30.3296 41.1773 31.0626 41.3625 31.9462C41.5711 32.9446 41.4102 33.8913 40.868 34.7696C40.8477 34.8023 40.8266 34.8342 40.8086 34.8677C40.6688 35.1224 40.7203 35.3627 40.9406 35.4882C41.1555 35.6106 41.407 35.5399 41.5641 35.2973C42.0953 34.4807 42.3516 33.5879 42.3227 32.6199C42.2836 31.3348 41.7836 30.2429 40.85 29.3372C40.782 29.2718 40.6922 29.2285 40.6109 29.173C40.8164 28.9715 40.9711 28.8194 41.1594 28.6361C41.357 28.8361 41.5469 29.0376 41.7477 29.2285C42.0391 29.5068 42.2906 29.4924 42.532 29.1768C43.2188 28.2772 43.9141 27.383 44.575 26.4652C44.7703 26.1929 44.8609 25.85 45 25.539V24.9117C44.8578 24.2691 44.4414 23.806 43.9758 23.3581ZM28.8062 25.6667C28.8781 25.5975 29.0078 25.5534 29.1117 25.5512C29.707 25.5405 30.3031 25.5405 30.8977 25.5519C31.0016 25.5534 31.1289 25.6029 31.2016 25.6736C33.1523 27.5632 35.0984 29.4581 37.0406 31.3569C37.1031 31.4185 37.1586 31.5424 37.1391 31.6192C37.0695 31.8915 36.9672 32.1561 36.8688 32.4504C36.7555 32.3758 36.6672 32.3211 36.5828 32.2618C34.9234 31.093 33.2641 29.9228 31.6039 28.754C30.4164 27.9183 29.1867 28.0042 28.1406 28.9981C26.6672 30.3988 25.1953 31.8017 23.7227 33.2024C23.6477 33.2746 23.568 33.3423 23.4578 33.4412C23.2477 32.8116 23.0469 32.2268 22.8648 31.6375C22.8414 31.5614 22.8859 31.4299 22.9461 31.3706C24.8945 29.4642 26.8477 27.5632 28.8062 25.6667ZM31.6016 30.6292C31.5906 31.4953 30.8797 32.1736 29.9875 32.1682C29.0977 32.1629 28.3945 31.471 28.3984 30.6048C28.4016 29.7395 29.1102 29.0498 29.9977 29.0483C30.8953 29.0475 31.6125 29.7539 31.6016 30.6292ZM28.0234 25.123C26.1391 26.9564 24.2156 28.8278 22.3203 30.671C21.4281 29.8019 20.5008 28.8985 19.5711 27.9928C19.7367 27.8385 19.9508 27.6385 20.2008 27.4058C20.5648 27.7632 20.9547 28.1449 21.3422 28.5274C21.6477 28.8293 22.0125 28.9913 22.4484 28.9373C22.9656 28.8734 23.3359 28.6004 23.518 28.1206C23.7008 27.6392 23.5977 27.1982 23.243 26.8271C22.9109 26.4796 22.5563 26.1519 22.2125 25.815C22.1453 25.7489 22.0813 25.6789 22.0312 25.6272C22.3023 25.3458 22.5477 25.0911 22.8289 24.7991C23.2445 25.2151 23.6414 25.6325 24.0617 26.0257C24.4383 26.3777 24.8945 26.4713 25.3891 26.2971C25.8727 26.126 26.1508 25.7755 26.2266 25.2865C26.2922 24.863 26.1398 24.501 25.832 24.2014C25.4391 23.8189 25.0422 23.4403 24.632 23.0456C24.875 22.8342 25.0969 22.6403 25.2977 22.4662C26.1883 23.3346 27.1164 24.2395 28.0234 25.123ZM20.7875 26.7807C20.9938 26.5762 21.1703 26.4005 21.3531 26.2196C21.7805 26.6287 22.2094 27.0256 22.6195 27.4385C22.7852 27.6058 22.7625 27.8126 22.5922 27.9723C22.4109 28.1434 22.1992 28.1373 22.0187 27.9685C21.6062 27.5807 21.2039 27.1838 20.7875 26.7807ZM23.4422 24.2068C23.632 24.0189 23.8148 23.838 24.0016 23.6539C24.4227 24.057 24.8445 24.4478 25.2492 24.8546C25.4242 25.031 25.4078 25.2432 25.2242 25.4105C25.0508 25.5686 24.8422 25.5694 24.6727 25.409C24.2547 25.0143 23.8492 24.6067 23.4422 24.2068ZM17.8859 28.2833C17.7336 28.0848 17.5555 27.8537 17.3961 27.6461C19.9031 25.209 22.3945 22.7878 24.9094 20.3431C25.118 20.4929 25.3531 20.6617 25.5641 20.8138C23.0078 23.3011 20.4555 25.7838 17.8859 28.2833ZM21.5602 36.4957C20.6672 36.4007 19.1125 35.4258 18.6719 33.7028C18.2984 32.2458 18.882 30.4953 19.993 29.7707C20.1969 29.96 20.4 30.1478 20.6031 30.3364C18.6281 31.9804 19.2633 34.9354 21.7062 35.7034C21.6555 35.9771 21.6078 36.2372 21.5602 36.4957ZM21.8695 34.8419C21.032 34.54 20.4953 33.9689 20.3469 33.1172C20.1945 32.2435 20.5094 31.5166 21.243 30.963C21.6344 31.3044 21.993 31.6367 22.1211 32.169C22.2609 32.7477 22.4797 33.3089 22.6805 33.8723C22.7406 34.0419 22.7109 34.1468 22.5828 34.2693C22.4383 34.4077 22.3094 34.5673 22.2023 34.7354C22.1117 34.8783 22.0242 34.8974 21.8695 34.8419ZM25.7687 41.7996C25.7555 42.0201 25.5719 42.1448 25.3352 42.1327C25.0984 42.1197 24.9484 41.9791 24.9398 41.7532C24.9242 41.3107 24.9352 40.8673 24.9352 40.3906H25.7773C25.7773 40.859 25.7969 41.3304 25.7687 41.7996ZM26.6656 41.2704C26.6656 40.9228 26.6305 40.5776 26.6844 40.2468C26.7039 40.1275 26.9391 40.0415 27.1117 39.9138C27.1273 40.0278 27.1383 40.072 27.1383 40.1161C27.1391 40.494 27.1391 40.8727 27.1391 41.2704H26.6656ZM25.2859 39.5419C23.6984 39.5176 22.432 38.2629 22.4437 36.7277C22.4562 35.1916 23.7516 33.956 25.3367 33.9689C26.9187 33.9811 28.1937 35.2395 28.1797 36.7771C28.1664 38.3086 26.85 39.5663 25.2859 39.5419ZM28.882 41.7038C28.8656 41.9692 28.6852 42.1418 28.4406 42.1357C28.1984 42.1296 28.0266 41.9578 28.0211 41.681C28.0117 41.1502 28.0602 40.6156 28.007 40.0902C27.9469 39.4978 28.1148 39.0431 28.6164 38.7032C28.6953 38.65 28.7578 38.5747 28.8844 38.4568V41.2772C28.8844 41.4194 28.8906 41.5616 28.882 41.7038ZM29.0641 37.0775C29.0945 35.9498 28.7773 34.9932 27.9945 34.2168C27.2172 33.4457 26.2648 33.0792 25.2352 33.1081C25.9516 32.3637 26.6992 31.5858 27.4953 30.7577C27.793 32.242 28.7805 33.0678 30.1109 33.0199C31.4492 32.972 32.3156 32.0633 32.5063 30.4611C33.3297 31.0375 34.1305 31.5979 34.9281 32.1568C34.9172 32.1842 34.9141 32.2093 34.9055 32.2116C34.0891 32.3812 33.4695 32.8481 32.893 33.4108C31.6461 34.6282 30.3766 35.8228 29.0641 37.0775ZM30.2133 41.2749H29.7852V38.4021H30.2133V41.2749ZM31.9773 41.7296C31.9453 41.9829 31.7703 42.1418 31.5352 42.1357C31.3023 42.1296 31.1242 41.9616 31.1195 41.7068C31.1094 41.1654 31.1156 40.6232 31.1156 40.0818C31.1148 39.5313 31.1156 38.9808 31.1156 38.3983H31.9555C31.9648 38.4781 31.9805 38.5496 31.9805 38.6218C31.982 39.6104 31.982 40.5989 31.9813 41.5867C31.9813 41.6346 31.9836 41.6825 31.9773 41.7296ZM30.018 37.504C30.7328 36.7695 31.4852 35.9954 32.3 35.1574C32.3297 36.1011 32.6242 36.8539 33.2797 37.504H30.018ZM33.3164 41.278H32.8797V38.4082H33.3164V41.278ZM35.0633 41.7517C35.0273 41.9912 34.8875 42.1296 34.6344 42.1334C34.4 42.1372 34.2211 41.9646 34.218 41.7122C34.2102 41.0666 34.2148 40.4217 34.2141 39.7761V38.4013H35.0547C35.0609 38.4949 35.0719 38.5861 35.0719 38.6781C35.0734 39.6362 35.0727 40.5951 35.0727 41.5532C35.0727 41.6194 35.0734 41.6863 35.0633 41.7517ZM35.5047 37.5276C34.2281 37.5261 33.2008 36.5292 33.1953 35.2867C33.1898 34.0404 34.2391 33.0153 35.5156 33.0191C36.7812 33.0237 37.8195 34.0335 37.8289 35.2692C37.8391 36.511 36.7906 37.5299 35.5047 37.5276ZM38.6305 34.5879C38.4719 33.9879 38.182 33.4807 37.7461 33.0511C37.693 32.9986 37.6625 32.8792 37.6836 32.807C37.7922 32.4336 37.8734 32.0405 38.0578 31.7029C38.2117 31.42 38.4953 31.204 38.7164 30.963C40.0367 31.7797 39.9852 33.8488 38.6305 34.5879ZM37.6969 30.7128C35.7781 28.8453 33.8539 26.9731 31.9539 25.123C32.8664 24.2341 33.7953 23.3285 34.732 22.4167C34.9172 22.6046 35.1187 22.8091 35.3391 23.0319C35.3055 23.073 35.2633 23.1331 35.2117 23.184C34.8539 23.5346 34.4883 23.8767 34.1367 24.2341C33.6273 24.7527 33.6313 25.5086 34.1344 26.0036C34.6344 26.4963 35.4172 26.5116 35.95 26.015C36.3656 25.628 36.7555 25.2158 37.1531 24.8181C37.4336 25.1063 37.6844 25.3649 37.9648 25.6546C37.5969 26.0097 37.182 26.396 36.7844 26.7967C36.2844 27.3009 36.2672 28.024 36.7266 28.5236C37.2281 29.0681 38.0398 29.0985 38.6039 28.573C39.0133 28.1928 39.3984 27.789 39.7805 27.4096C40.0156 27.6408 40.2297 27.8514 40.4328 28.0514C39.543 28.9167 38.6187 29.8163 37.6969 30.7128ZM35.9937 23.6524C36.1805 23.8402 36.3617 24.0212 36.5531 24.2128C36.1523 24.606 35.7484 25.0143 35.3297 25.4074C35.1492 25.5763 34.9328 25.5694 34.757 25.393C34.5914 25.2272 34.5836 25.0227 34.7484 24.8569C35.1539 24.4493 35.5742 24.057 35.9937 23.6524ZM38.6219 26.218C38.8102 26.415 38.9875 26.599 39.1828 26.8036C38.7938 27.1822 38.3992 27.5754 37.9938 27.9563C37.7961 28.1419 37.5586 28.1404 37.3977 27.9662C37.2281 27.7822 37.2305 27.5815 37.4047 27.4066C37.8039 27.0058 38.2133 26.6157 38.6219 26.218ZM42.1125 28.2886C39.5492 25.7945 36.9984 23.3118 34.4336 20.8161C34.6469 20.6632 34.8867 20.4906 35.1023 20.3355C37.6047 22.7719 40.0938 25.1945 42.607 27.6415C42.4422 27.8575 42.2688 28.0841 42.1125 28.2886ZM43.8008 26.0629C43.6008 26.3306 43.3977 26.596 43.2141 26.837C40.7898 24.4729 38.375 22.1187 35.9305 19.7355C36.2523 19.512 36.6 19.2337 36.9828 19.0132C37.4875 18.7219 38.0758 18.836 38.5312 19.2763C39.507 20.2199 40.4781 21.1689 41.4508 22.1156C42.1891 22.8342 42.9281 23.552 43.6641 24.2722C44.2273 24.8242 44.2727 25.4318 43.8008 26.0629Z" fill="#081733"/>
<path d="M25.3211 35.4628C24.5844 35.4582 23.975 36.0514 23.9836 36.7631C23.993 37.4718 24.586 38.0383 25.3164 38.0368C26.0461 38.0345 26.6367 37.4619 26.6391 36.754C26.6406 36.0506 26.0453 35.4666 25.3211 35.4628ZM25.7547 36.7783C25.7383 37.0186 25.5344 37.1927 25.2844 37.179C25.0391 37.1661 24.8508 36.9616 24.8672 36.7251C24.8836 36.4901 25.0992 36.3053 25.3383 36.3198C25.5797 36.3342 25.7703 36.5449 25.7547 36.7783Z" fill="#081733"/>
<path d="M35.5078 33.9854C34.7867 33.9869 34.1891 34.5678 34.1836 35.2727C34.1789 35.9776 34.7688 36.5571 35.4977 36.5624C36.2282 36.5677 36.8227 36.0065 36.8383 35.2963C36.8532 34.5891 36.2399 33.9846 35.5078 33.9854ZM35.4969 35.7046C35.2485 35.6986 35.0578 35.5039 35.0664 35.2644C35.0742 35.0309 35.2867 34.8347 35.5235 34.8423C35.7602 34.8507 35.9633 35.0606 35.9563 35.2895C35.9485 35.5275 35.7453 35.7107 35.4969 35.7046Z" fill="#081733"/>
</g>
<defs>
<clipPath id="clip0_634_7264">
<rect width="30" height="25" fill="white" transform="translate(15 18)"/>
</clipPath>
</defs>
</svg>
