<svg width="60" height="60" viewBox="0 0 60 60" fill="none" xmlns="http://www.w3.org/2000/svg">
<circle cx="30" cy="30" r="30" fill="#F9CBC3"/>
<g clip-path="url(#clip0_634_7174)">
<path d="M44.096 34.8485C43.6581 34.8573 43.3355 34.675 43.1524 34.2749C42.9758 33.8894 43.0564 33.5191 43.4024 33.1779C43.6153 32.9674 43.8508 32.7802 44.0677 32.5898C43.3331 31.8542 42.6637 31.1847 41.95 30.47C41.7371 30.6983 41.5258 30.9402 41.2968 31.1653C40.9943 31.4638 40.6331 31.5388 40.2411 31.3662C39.8621 31.1992 39.6774 30.8935 39.6758 30.4797C39.6742 30.1699 39.675 29.8601 39.675 29.5286H38.6951C38.6798 29.41 38.671 29.3116 38.654 29.214C38.5621 28.6994 38.5016 28.1759 38.3621 27.6741C38.2766 27.3692 38.3266 27.1893 38.5476 26.9707C40.3177 25.2187 42.0814 23.461 43.8322 21.6904C45.504 20.0005 45.3597 17.3402 43.5347 15.8656C41.9774 14.6081 39.7597 14.7307 38.3089 16.1722C36.5137 17.9557 34.7274 19.748 32.9427 21.542C32.7984 21.6864 32.6806 21.7195 32.4718 21.6703C31.9056 21.5364 31.3298 21.4355 30.7532 21.3508C30.5468 21.3202 30.4145 21.254 30.296 21.0766C29.4137 19.7601 27.8484 19.1148 26.3226 19.4471C26.0863 19.498 25.9951 19.4367 25.8734 19.2487C24.8322 17.6411 23.3419 16.8288 21.4339 16.9627C19.5282 17.0974 18.1556 18.1 17.3476 19.836C16.9 20.7983 16.8274 21.8122 17.0548 22.8568C16.9605 22.898 16.8798 22.9351 16.7984 22.969C15.4129 23.5514 14.7016 25.0348 15.1185 26.4755C15.4677 27.6822 16.5855 28.5381 17.8645 28.5518C19.0331 28.5655 20.2008 28.555 21.3911 28.555C21.3951 28.6115 21.4 28.6324 21.3976 28.6518C21.1935 29.969 21.2556 31.2613 21.7274 32.5229C21.7613 32.6124 21.6839 32.7867 21.604 32.8681C20.2992 34.1862 18.9855 35.4954 17.6766 36.8102C17.5798 36.9078 17.4806 37.0216 17.4322 37.1466C16.6468 39.1737 15.8629 41.2016 15.0984 43.2368C15.0137 43.4602 14.9903 43.7385 15.0355 43.9732C15.1951 44.7984 16.0097 45.209 16.8339 44.8944C18.8371 44.1313 20.8371 43.3602 22.8355 42.5858C22.9613 42.5374 23.0798 42.4471 23.1766 42.3511C24.0218 41.5138 24.8621 40.6716 25.7016 39.8287C25.8266 39.7029 25.9403 39.5657 26.0403 39.4536C26.1758 39.8924 26.2992 40.2933 26.4355 40.7354C25.8468 41.592 26.0871 42.5084 27.0693 42.9795C27.1564 43.0206 27.2355 43.1174 27.2782 43.2069C27.8226 44.3508 28.7185 44.9977 29.9879 45.0001C31.2693 45.0033 32.1766 44.3564 32.7193 43.1956C32.754 43.1206 32.8105 43.027 32.8798 42.9996C33.5169 42.7471 33.8339 42.268 33.8895 41.517C34.0935 41.7574 34.2532 41.9461 34.4443 42.1712C34.7 41.901 34.9048 41.6799 35.1153 41.4638C35.4201 41.1516 35.7831 41.0524 36.1903 41.2258C36.5968 41.3984 36.7782 41.7243 36.7726 42.1623C36.7685 42.4608 36.7718 42.7592 36.7718 43.0512H39.675C39.675 42.7455 39.6734 42.464 39.675 42.1817C39.6782 41.7041 39.879 41.3734 40.2661 41.2194C40.6806 41.054 41.0387 41.1597 41.3395 41.4726C41.5476 41.6896 41.7435 41.9187 41.9177 42.1123C42.6411 41.3855 43.3137 40.7104 44.0089 40.0118C43.8218 39.8303 43.6113 39.6286 43.4024 39.4254C43.0814 39.1132 42.971 38.7462 43.1524 38.3259C43.3274 37.9194 43.6556 37.7435 44.0927 37.7508C44.3903 37.7556 44.6887 37.7516 44.9814 37.7516V34.8476C44.6758 34.8476 44.3863 34.8428 44.096 34.8485ZM37.8766 26.2173C37.4419 25.5656 36.9919 24.892 36.5589 24.2427C37.2653 23.5352 38.0016 22.7996 38.7121 22.0889C39.2363 22.6124 39.8016 23.1779 40.3613 23.7369C39.5395 24.5581 38.7 25.3954 37.8766 26.2173ZM38.079 33.8942C39.4677 33.7901 40.646 34.9162 40.6411 36.4513C40.5935 37.2829 40.1661 38.0331 39.2839 38.4647C38.3903 38.901 37.5129 38.8051 36.7322 38.1912C35.9951 37.6112 35.6919 36.8288 35.8532 35.8931C35.875 35.7656 35.9581 35.6357 36.046 35.5365C36.4597 35.0703 36.8613 34.5879 37.3193 34.1685C37.504 33.9991 37.8169 33.9135 38.079 33.8942ZM41.7774 16.06C42.9443 16.344 43.6951 17.1159 43.9556 18.2912C44.2637 19.6819 43.6145 20.7007 42.6024 21.5275C41.2282 20.153 39.8621 18.7857 38.4774 17.3999C39.3226 16.3609 40.3685 15.7172 41.7774 16.06ZM37.7451 18.2057C39.0822 19.5439 40.4532 20.9152 41.8411 22.3035C41.6169 22.5213 41.3798 22.7528 41.1726 22.9553C39.8064 21.5888 38.4363 20.2175 37.0798 18.8607C37.2742 18.6695 37.521 18.4267 37.7451 18.2057ZM36.3161 19.648C36.8468 20.1788 37.4072 20.7386 37.95 21.2823C37.225 22.0026 36.4863 22.7383 35.7693 23.4513C35.129 23.0214 34.4556 22.5697 33.8097 22.1365C34.6274 21.325 35.4718 20.4861 36.3161 19.648ZM17.9572 27.5862C16.8685 27.5854 16.0145 26.7909 15.9685 25.7543C15.9234 24.7347 16.6484 23.8668 17.6613 23.728C18.6363 23.5941 19.5742 24.2644 19.7879 25.2494C19.8129 25.3671 19.829 25.4865 19.8548 25.6398H20.7951C20.7968 24.9315 20.5653 24.3193 20.1185 23.7885C19.6306 23.2085 19.0032 22.8697 18.2508 22.7778C18.0879 22.7576 18.0064 22.7076 17.9693 22.5382C17.5798 20.7426 18.6395 18.8268 20.4008 18.1581C22.1548 17.4926 24.1782 18.2057 25.0935 19.8126C25.1032 19.8295 25.1072 19.8505 25.1218 19.8908C25.0468 19.944 24.9669 20.0021 24.8871 20.0594C24.0097 20.687 23.4742 21.5291 23.2718 22.5915C23.2516 22.6979 23.1322 22.8254 23.0282 22.8689C22.2685 23.1868 21.7911 23.8506 21.7822 24.6605H22.6226C22.8153 24.383 22.954 24.1015 23.1701 23.9031C23.3064 23.7772 23.5564 23.7288 23.7572 23.7272C24.2379 23.7224 24.5572 24.062 24.6968 24.6686H25.6201C25.6589 23.945 25.2024 23.2335 24.4798 22.9294C24.2621 22.8383 24.2234 22.7415 24.2798 22.5253C24.65 21.1032 26.0532 20.1352 27.4516 20.3498C28.9855 20.5845 30.0532 21.8453 29.9951 23.3537C29.9814 23.7054 29.9 23.9797 29.5556 24.2023C28.8887 24.6339 28.5798 25.3026 28.5435 26.1173H29.4968C29.5742 25.4413 29.896 24.9412 30.575 24.7444C31.1524 24.5774 31.6581 24.7379 32.0516 25.1848C32.4363 25.6228 32.5282 26.1351 32.304 26.6787C32.0758 27.2313 31.6443 27.5249 31.0516 27.5846C31.0016 27.5894 30.9508 27.5878 30.9008 27.5878C26.5863 27.5878 22.2718 27.5894 17.9572 27.5862ZM22.2871 33.6683C22.7742 34.237 23.2911 34.8396 23.7774 35.4075C22.6226 36.5634 21.4524 37.7338 20.2806 38.9059C19.7613 38.3872 19.2008 37.8266 18.6653 37.2902C19.8726 36.0826 21.0935 34.8614 22.2871 33.6683ZM16.3911 44.0224C16.1322 44.108 15.9016 43.8595 15.9911 43.5973C16.1331 43.1827 16.3024 42.777 16.454 42.3833C16.846 42.773 17.229 43.1545 17.6298 43.553C17.225 43.7079 16.8137 43.8829 16.3911 44.0224ZM18.8081 43.0956C18.7387 43.1214 18.6089 43.0867 18.5532 43.0335C18.0201 42.514 17.4943 41.9865 16.9734 41.4541C16.9226 41.4025 16.8806 41.2863 16.9032 41.2258C17.2839 40.2118 17.6758 39.2019 18.0524 38.2251C19.2943 39.4681 20.5331 40.7079 21.7814 41.9566C20.8137 42.3293 19.8129 42.7181 18.8081 43.0956ZM22.7242 41.3266C22.1976 40.8023 21.6371 40.2441 21.1089 39.7182C22.2564 38.5703 23.4314 37.3942 24.6548 36.1705C25.1258 36.7408 25.6347 37.3555 26.1129 37.9347C24.9427 39.1067 23.8234 40.2264 22.7242 41.3266ZM25.3726 35.572C24.7653 34.9549 24.1347 34.3548 23.5734 33.6974C22.3008 32.2075 22.0443 30.4659 22.404 28.5735H27.5782C27.5782 29.0527 27.575 29.5052 27.579 29.9578C27.5871 30.8402 28.2024 31.4549 29.0895 31.4589C30.329 31.463 31.5693 31.4622 32.8089 31.4581C33.0968 31.4573 33.3032 31.5638 33.3718 31.8534C33.4476 32.1696 33.196 32.4253 32.8097 32.4261C31.5395 32.4293 30.2702 32.4277 29 32.4277C28.6774 32.4277 28.3548 32.4213 28.0322 32.4301C27.2419 32.4511 26.6169 33.0875 26.6113 33.8676C26.6056 34.6613 27.2339 35.3082 28.0387 35.3292C28.3605 35.3381 28.6839 35.3252 29.0056 35.3341C29.3008 35.3429 29.5016 35.5123 29.5064 35.7922C29.5202 36.5279 29.5129 37.2644 29.5137 38V38.2428C28.7847 38.2428 28.0822 38.2469 27.3798 38.2372C27.325 38.2364 27.2484 38.1549 27.221 38.0928C26.7879 37.1176 26.1121 36.323 25.3726 35.572ZM30.0322 44.037C29.3081 44.0483 28.7427 43.7304 28.3024 43.0916H31.6863C31.2742 43.7111 30.729 44.0249 30.0322 44.037ZM32.3137 42.1067C31.5379 42.1091 30.7621 42.1075 29.9855 42.1075C29.2193 42.1075 28.454 42.1091 27.6879 42.1067C27.3121 42.105 27.0895 41.9147 27.0968 41.6114C27.104 41.3186 27.3185 41.1411 27.6806 41.1403C29.2234 41.1387 30.7653 41.1387 32.3072 41.1403C32.6814 41.1411 32.9056 41.3331 32.8984 41.6348C32.8911 41.9252 32.6734 42.105 32.3137 42.1067ZM32.2952 40.1707C30.7629 40.1723 29.2314 40.1723 27.6992 40.1707C27.3185 40.1707 27.0968 39.9884 27.0968 39.6867C27.0968 39.3858 27.3185 39.2052 27.7 39.2043C28.4758 39.2019 29.2516 39.2035 30.0282 39.2035C30.7839 39.2035 31.5395 39.2019 32.296 39.2043C32.6766 39.2052 32.8984 39.3858 32.8984 39.6875C32.8984 39.9884 32.6758 40.1707 32.2952 40.1707ZM32.7177 38.2315H30.496C30.4903 38.1242 30.4822 38.0274 30.4822 37.9315C30.4806 37.2256 30.4887 36.5198 30.479 35.814C30.4677 35.0009 29.8492 34.383 29.0395 34.3653C28.7371 34.3588 28.4347 34.3677 28.1322 34.3629C27.7976 34.3572 27.5871 34.1725 27.5806 33.8894C27.5742 33.5957 27.7927 33.3973 28.1435 33.3973C29.7258 33.3941 31.3081 33.4029 32.8903 33.3925C33.8871 33.386 34.5718 32.4543 34.2879 31.5178C34.1024 30.9072 33.5443 30.4958 32.8726 30.4934C31.6532 30.4885 30.4339 30.4926 29.2137 30.4918C28.6984 30.4909 28.5476 30.3409 28.546 29.8287C28.5451 29.4173 28.546 29.0051 28.546 28.5558C28.9653 28.5558 29.3645 28.5598 29.7637 28.555C30.2871 28.5485 30.8193 28.5897 31.3322 28.5131C32.596 28.3227 33.4427 27.2506 33.3806 25.9963C33.321 24.7936 32.3597 23.8256 31.1193 23.7208C31.0693 23.7159 31.021 23.7111 30.9774 23.707C30.9508 23.2513 30.9258 22.8044 30.8976 22.3148C31.179 22.3656 31.475 22.4027 31.7637 22.4729C35.3887 23.3449 37.8831 26.6449 37.7314 30.3675C37.671 31.8477 37.0548 33.0851 36.046 34.1426C35.7605 34.4419 35.4701 34.7363 35.175 35.0251C34.1992 35.9786 33.2387 36.9425 32.7177 38.2315ZM44.0081 36.7675C43.2008 36.8264 42.5782 37.191 42.254 37.9645C41.9282 38.7429 42.1129 39.4399 42.6548 40.0675C42.429 40.2861 42.2129 40.495 41.979 40.7208C41.3734 40.1957 40.6758 40.0062 39.8984 40.3264C39.1314 40.6418 38.7589 41.2484 38.6951 42.0841H37.7564C37.6951 41.2823 37.3339 40.6571 36.5613 40.332C35.7839 40.0053 35.0855 40.186 34.4258 40.7596C34.2419 40.5611 34.0581 40.3756 33.8935 40.1747C33.8468 40.1183 33.8314 40.011 33.8451 39.9344C33.9097 39.5794 33.8314 39.2568 33.6597 38.947C33.6185 38.8728 33.5581 38.7671 33.5822 38.705C33.8597 37.9758 34.2871 37.3426 34.8387 36.7642C35.5185 38.947 36.9451 39.9521 38.8564 39.6254C40.4839 39.3479 41.6855 37.8201 41.6032 36.1173C41.5282 34.5573 40.2839 32.9335 38.1629 32.898C38.3484 32.2043 38.5363 31.5041 38.7185 30.8265C38.8726 31.5283 39.2855 32.0736 40.0298 32.322C40.7701 32.5681 41.4145 32.3656 41.9895 31.8663C42.2072 32.097 42.4137 32.3156 42.6355 32.5511C42.1169 33.1497 41.9314 33.849 42.2508 34.6258C42.5661 35.3937 43.1742 35.7632 44.0081 35.8277V36.7675Z" fill="#081733"/>
<path d="M38.2306 34.8484C37.4395 34.8452 36.7831 35.4881 36.7726 36.2762C36.7621 37.0812 37.4145 37.7467 38.2153 37.7507C39.0065 37.7539 39.6637 37.1102 39.6742 36.3221C39.6847 35.5171 39.0331 34.8524 38.2306 34.8484ZM38.2129 36.7811C37.9516 36.7755 37.7363 36.5504 37.7419 36.2891C37.7476 36.0269 37.9718 35.8123 38.2331 35.818C38.4952 35.8236 38.7105 36.0479 38.7048 36.3092C38.6992 36.5714 38.4742 36.7868 38.2129 36.7811Z" fill="#081733"/>
</g>
<defs>
<clipPath id="clip0_634_7174">
<rect width="30" height="30" fill="white" transform="translate(15 15)"/>
</clipPath>
</defs>
</svg>
