<svg width="60" height="60" viewBox="0 0 60 60" fill="none" xmlns="http://www.w3.org/2000/svg">
<circle cx="30" cy="30" r="30" fill="#E65425"/>
<g clip-path="url(#clip0_634_7155)">
<path d="M43.5695 34.7874C43.5195 34.7881 43.4445 34.73 43.4234 34.681C43.2867 34.3682 43.1617 34.0499 43.0343 33.737C43.7554 32.9185 43.739 32.3677 43.0023 31.576C42.9125 31.4788 42.8703 31.3052 42.8703 31.1667C42.8632 27.237 42.8671 23.3072 42.8601 19.3775C42.8601 19.0256 42.8359 18.6676 42.7617 18.3241C42.4687 16.9617 41.3531 16.0039 40.057 16.0031C32.6367 15.9986 25.2156 16.0009 17.7945 16.0016C17.1851 16.0016 16.6437 16.1959 16.1789 16.5777C15.3437 17.2646 15.0007 18.1688 15 19.2153C15 24.5503 14.9992 29.8853 15.0023 35.2211C15.0023 35.4583 15.0234 35.6985 15.0609 35.9333C15.264 37.207 16.2078 38.278 17.4226 38.379C18.7125 38.4853 20.0164 38.4272 21.3148 38.4188C21.6273 38.4165 21.8406 38.1219 21.8234 37.8213C21.8054 37.4992 21.5609 37.2828 21.1922 37.2812C20.0984 37.2774 19.0047 37.2743 17.9109 37.2812C17.332 37.285 16.9 37.0387 16.5781 36.5836C16.2789 36.159 16.1765 35.6809 16.1765 35.1714C16.1789 31.8253 16.1773 28.4785 16.1781 25.1325C16.1781 25.0315 16.1875 24.9305 16.1922 24.8288H41.6523V30.5685C41.3453 30.6572 41.0015 30.658 40.8265 30.8263C40.4539 31.1851 40.1289 31.1093 39.7578 30.8898C39.7171 30.8661 39.6687 30.8469 39.6218 30.8393C39.3703 30.801 39.2914 30.6641 39.2726 30.4132C39.2218 29.7492 38.7359 29.2787 38.0586 29.2374C37.6117 29.2099 37.1578 29.2068 36.7132 29.2504C36.1539 29.3055 35.7929 29.6428 35.6304 30.1646C35.5742 30.3443 35.5726 30.5394 35.5461 30.7322C35.2812 30.8408 35.0031 30.9341 34.7468 31.0672C34.5687 31.1598 34.4664 31.1399 34.3187 31.006C33.7937 30.5318 33.0531 30.5226 32.5398 30.9808C32.2375 31.2508 31.9476 31.5362 31.6703 31.8322C31.2937 32.2338 31.1617 32.8879 31.5179 33.2834C31.9078 33.7172 31.7789 34.0599 31.5718 34.4607C31.5453 34.5112 31.5468 34.5839 31.5086 34.6191C31.4359 34.6879 31.3476 34.7805 31.2593 34.7881C30.3742 34.8662 29.9054 35.3558 29.9007 36.2317C29.8984 36.5721 29.9 36.9125 29.9 37.2797H29.5757C28.5601 37.2797 27.5445 37.2766 26.5297 37.2812C26.1172 37.2828 25.8679 37.5321 25.8929 37.8986C25.9156 38.226 26.1656 38.4302 26.5648 38.431C28.0593 38.4333 29.5531 38.4425 31.0468 38.4233C31.3625 38.4195 31.5289 38.4983 31.5929 38.8043C31.6234 38.9512 31.6937 39.0965 31.7742 39.225C31.8843 39.3987 31.8609 39.5119 31.7132 39.6649C31.2273 40.1667 31.2218 40.892 31.6945 41.4053C31.9687 41.7028 32.2625 41.9859 32.5656 42.2552C32.9718 42.6162 33.6297 42.7524 34.0226 42.4135C34.4742 42.0241 34.8312 42.1374 35.2492 42.3615C35.2664 42.3707 35.2843 42.3806 35.3031 42.3837C35.525 42.412 35.589 42.5321 35.6023 42.7509C35.6492 43.5044 36.1968 43.9917 36.9671 43.9986C37.2703 44.0016 37.5726 44.0001 37.8757 43.9993C38.7328 43.9963 39.2609 43.5044 39.3156 42.6667C39.3211 42.5933 39.3531 42.4808 39.4054 42.4579C39.7312 42.3156 40.0664 42.194 40.3929 42.0677C41.0757 42.6682 41.7773 42.744 42.3382 42.2597C42.6523 41.9882 42.9476 41.6929 43.2281 41.3884C43.6093 40.9746 43.7187 40.3182 43.3554 39.9089C43.0125 39.5226 43.0828 39.2258 43.2937 38.8624C43.3453 38.7722 43.3593 38.6613 43.4109 38.5702C43.4421 38.5144 43.5109 38.4386 43.5617 38.4386C44.3101 38.4455 44.7554 38.0584 45 37.4013V35.7949C44.7398 35.1645 44.3046 34.7751 43.5695 34.7874ZM16.1984 23.6301C16.1914 23.5459 16.1789 23.4725 16.1789 23.399C16.1773 21.993 16.1765 20.5877 16.1789 19.1817C16.1797 18.6194 16.3351 18.1061 16.7164 17.6731C17.0437 17.3013 17.4593 17.1491 17.9609 17.1491C22.5703 17.1552 27.1797 17.1529 31.789 17.1529H39.7578C40.8742 17.1529 41.6226 17.8223 41.6593 18.9277C41.6968 20.0736 41.6742 21.2219 41.6765 22.3694C41.6781 22.7794 41.6773 23.1894 41.6773 23.6301H16.1984ZM43.2117 37.2797C42.6476 37.2797 42.5445 37.3822 42.3648 37.9062C42.2132 38.3461 42.0156 38.7737 41.8078 39.1922C41.6281 39.5555 41.6359 39.7537 41.9218 40.0421C42.425 40.5508 42.4281 40.5531 41.9187 41.045C41.4109 41.5361 41.5507 41.5453 41.0406 41.0541C40.6468 40.6755 40.4976 40.6755 40.0101 40.9134C39.5773 41.1245 39.1195 41.2936 38.6625 41.4512C38.2734 41.585 38.1398 41.7273 38.1336 42.1305C38.1218 42.8473 38.1218 42.8488 37.3742 42.8473C36.7156 42.8457 36.7812 42.9153 36.7789 42.2636C36.7773 41.6967 36.6687 41.5919 36.1203 41.4129C35.6703 41.266 35.2351 41.0687 34.8078 40.8652C34.439 40.6908 34.2367 40.7007 33.939 40.9822C33.4211 41.4703 33.4187 41.4733 32.9164 40.9746C32.4226 40.4842 32.4046 40.6158 32.9132 40.1163C33.2906 39.7452 33.2929 39.58 33.0507 39.1065C32.8429 38.6995 32.6695 38.2726 32.5218 37.8404C32.375 37.4128 32.2336 37.2835 31.7695 37.2789C31 37.2713 31.0937 37.3814 31.089 36.605C31.0859 35.9616 31.0882 35.9616 31.7297 35.9563C32.2242 35.9524 32.3679 35.8163 32.5242 35.3657C32.6789 34.9159 32.8765 34.4791 33.0851 34.0499C33.2711 33.6674 33.2625 33.4815 32.9632 33.1755C32.4703 32.6722 32.4695 32.6714 32.9797 32.1742C33.0968 32.0602 33.2179 31.9493 33.3406 31.8399C33.3593 31.8231 33.3953 31.8238 33.4351 31.8139C33.4773 31.8414 33.5297 31.8674 33.5718 31.9041C33.6445 31.9676 33.7109 32.038 33.7804 32.1053C34.2531 32.5666 34.3593 32.5628 34.9484 32.2698C35.3453 32.0724 35.7679 31.9187 36.1914 31.7794C36.6093 31.6425 36.7453 31.4972 36.75 31.0611C36.757 30.3872 36.757 30.3872 37.4562 30.3872C38.0961 30.3872 38.0961 30.3872 38.1046 31.0282C38.1101 31.4811 38.2515 31.6303 38.6765 31.7718C39.1445 31.9286 39.6062 32.1099 40.0507 32.3211C40.4718 32.5215 40.6625 32.5215 40.9906 32.2094C41.4828 31.7412 41.4828 31.7412 41.9726 32.2208C42.4289 32.6676 42.4289 32.6676 41.9703 33.1212C41.6234 33.4647 41.6203 33.6399 41.8312 34.0614C42.0484 34.4959 42.2343 34.9488 42.3984 35.4055C42.5406 35.8002 42.6921 35.9448 43.1054 35.9563C43.8218 35.9762 43.8234 35.9762 43.8218 36.6754C43.8211 37.3294 43.8921 37.2797 43.2117 37.2797Z" fill="white"/>
<path d="M29.2852 31.5996C28.7602 32.1894 28.2281 32.7738 27.6922 33.3537C27.4414 33.6252 27.0836 33.6528 26.8336 33.4401C26.5719 33.2175 26.5617 32.8648 26.8211 32.5749C27.2766 32.067 27.7383 31.5644 28.2156 31.0396C27.743 30.5186 27.2961 30.0283 26.8516 29.5349C26.5703 29.222 26.5609 28.8816 26.8219 28.6482C27.0836 28.4134 27.4398 28.4516 27.7195 28.7553C28.2414 29.3222 28.7617 29.8913 29.275 30.4651C29.6062 30.8353 29.6117 31.2331 29.2852 31.5996Z" fill="white"/>
<path d="M20.9539 33.4944C20.7234 33.6406 20.4132 33.6031 20.207 33.3873C19.8742 33.0385 19.5547 32.6767 19.2297 32.3202C19.0093 32.0777 18.7843 31.8375 18.5703 31.5896C18.2656 31.2354 18.257 30.843 18.5625 30.4988C19.0945 29.8998 19.6343 29.3084 20.1781 28.7202C20.4304 28.4478 20.7867 28.4241 21.0367 28.6429C21.2859 28.8617 21.3015 29.2128 21.0562 29.489C20.6007 30 20.1367 30.5034 19.65 31.0388C20.1031 31.5376 20.5398 32.0127 20.9687 32.4938C21.0625 32.5994 21.1625 32.7188 21.2031 32.8488C21.2836 33.1127 21.1976 33.3407 20.9539 33.4944Z" fill="white"/>
<path d="M25.1289 28.6092C24.9828 29.2189 24.8524 29.7666 24.7188 30.3144C24.4664 31.3548 24.2196 32.3967 23.95 33.4325C23.9031 33.613 23.7844 33.8027 23.6414 33.9243C23.4586 34.0812 23.2172 34.0513 23.0149 33.9121C22.8039 33.7668 22.7172 33.5617 22.7766 33.3108C22.9828 32.4464 23.1922 31.5827 23.4016 30.719C23.5742 30.0038 23.7438 29.2878 23.9258 28.574C24.0508 28.0829 24.5641 27.8901 24.9024 28.2122C25.018 28.3223 25.068 28.4983 25.1289 28.6092Z" fill="white"/>
<path d="M24.4586 37.8701C24.4484 38.1815 24.1906 38.4286 23.8718 38.4301C23.5484 38.4324 23.2695 38.1624 23.2711 37.8495C23.2734 37.5312 23.5453 37.2757 23.8781 37.2803C24.214 37.2849 24.4687 37.5443 24.4586 37.8701Z" fill="white"/>
<path d="M37.7914 18.4823C36.0539 18.4678 34.3164 18.4754 32.5789 18.4816C32.0953 18.4831 31.6586 18.6376 31.289 18.9505C30.6609 19.4822 30.4344 20.2999 30.7031 21.0573C30.9719 21.8154 31.6906 22.3455 32.5242 22.3608C33.4117 22.3769 34.3008 22.3646 35.189 22.3646V22.3669H37.7656C38.9109 22.3493 39.7805 21.5262 39.7906 20.4499C39.8008 19.3536 38.9445 18.4923 37.7914 18.4823ZM38.5406 20.7421C38.3898 21.0619 38.1148 21.2087 37.764 21.2095C36.0469 21.2126 34.3289 21.2156 32.6117 21.2072C32.1211 21.2041 31.775 20.8614 31.7734 20.4246C31.7711 19.9894 32.1164 19.6512 32.6094 19.6451C33.4781 19.6329 34.3469 19.6413 35.2156 19.6413C36.064 19.6413 36.9133 19.6306 37.7625 19.6443C38.4023 19.6543 38.7898 20.2112 38.5406 20.7421Z" fill="white"/>
<path d="M25.625 18.4801C24.5367 18.4755 23.6281 19.3682 23.6367 20.4323C23.6453 21.4949 24.5344 22.3624 25.6148 22.3647C26.7102 22.367 27.6023 21.4903 27.5992 20.4139C27.5961 19.3544 26.7086 18.4846 25.625 18.4801ZM25.6047 21.2072C25.1633 21.1965 24.8172 20.8385 24.8273 20.4009C24.8375 19.9779 25.1898 19.6428 25.6219 19.6444C26.0633 19.6467 26.4266 20.0047 26.4211 20.4323C26.4148 20.8592 26.0375 21.2172 25.6047 21.2072Z" fill="white"/>
<path d="M20.4914 18.4801C19.3992 18.4732 18.5039 19.3514 18.507 20.4293C18.5094 21.4957 19.3883 22.3601 20.4742 22.3647C21.5727 22.3693 22.4617 21.4972 22.4594 20.4178C22.457 19.3522 21.5781 18.487 20.4914 18.4801ZM20.4898 21.208C20.0555 21.2134 19.6875 20.8538 19.6867 20.4239C19.6859 20.0016 20.0273 19.6582 20.4602 19.6459C20.9047 19.6329 21.2703 19.9749 21.2758 20.4094C21.282 20.8431 20.9289 21.2019 20.4898 21.208Z" fill="white"/>
<path d="M37.4554 33.0844C35.4594 33.0814 33.8437 34.6618 33.8461 36.6148C33.8476 38.5617 35.4765 40.1529 37.4625 40.1483C39.4312 40.1429 41.0586 38.5502 41.0648 36.6232C41.0719 34.6794 39.4476 33.0867 37.4554 33.0844ZM37.4453 38.9901C36.1094 38.9832 35.0304 37.9214 35.0297 36.6125C35.0289 35.2998 36.1039 34.2441 37.4437 34.2411C38.7945 34.238 39.8953 35.3143 39.8812 36.6255C39.8672 37.9314 38.7695 38.997 37.4453 38.9901Z" fill="white"/>
</g>
<defs>
<clipPath id="clip0_634_7155">
<rect width="30" height="28" fill="white" transform="translate(15 16)"/>
</clipPath>
</defs>
</svg>
