<svg width="60" height="60" viewBox="0 0 60 60" fill="none" xmlns="http://www.w3.org/2000/svg">
<circle cx="30" cy="30" r="30" fill="#FFDAD3"/>
<g clip-path="url(#clip0_634_7278)">
<path d="M40.489 38.0268V43.9831H19.5223V31.9973H19.8823C22.3625 31.9973 24.8433 31.9979 27.3235 31.996C27.4885 31.9954 27.6579 31.9966 27.8179 31.9616C28.5505 31.801 29.0018 31.2028 29.0018 30.3971C29.003 26.3834 29.0024 22.3698 29.0024 18.3568V18.0149H34.5048V24.0019H40.5021V30.9815H41.481C41.4866 30.9196 41.4941 30.8728 41.4941 30.8259C41.4953 28.3743 41.4972 25.9234 41.4878 23.4725C41.4878 23.3562 41.4097 23.2137 41.3241 23.1274C39.3477 21.1403 37.3644 19.1607 35.388 17.1735C35.2498 17.0348 35.1098 16.9935 34.9235 16.9941C33.0584 16.9991 31.1932 16.9973 29.3281 16.9973H29.0024C29.0024 16.8691 29.003 16.7822 29.0024 16.6954C28.9974 15.5896 28.4061 15.0008 27.2985 15.0008C23.7539 15.0001 20.2092 15.0001 16.6645 15.0008C15.6019 15.0008 15.0019 15.6058 15.0013 16.6754V22.0367C15.0013 24.8295 15.0031 27.6224 15 30.4152C14.9994 30.9028 15.1563 31.3153 15.5263 31.6354C15.8188 31.8879 16.162 32.0023 16.5501 31.9985C17.1921 31.9929 17.8334 31.9973 18.5059 31.9973V32.3748C18.5059 36.4566 18.5059 40.5383 18.5065 44.6201C18.5065 44.747 18.5134 44.8739 18.5172 45.0001H41.4847C41.4878 44.9614 41.4947 44.9226 41.4947 44.8839C41.4953 42.6674 41.4953 40.4508 41.4947 38.2337C41.4947 38.168 41.4853 38.1018 41.4797 38.0268H40.489ZM35.5173 18.8444C36.8856 20.2102 38.2751 21.5972 39.6521 22.9724H35.5173V18.8444ZM16.6845 30.9984C16.1588 30.9984 16.0001 30.8415 16.0001 30.3221C15.9995 28.0474 15.9995 25.7734 15.9995 23.4987V16.7041C15.9995 16.1484 16.1513 15.999 16.7164 15.999C20.2404 15.9984 23.7645 15.9984 27.2879 15.999C27.8504 15.999 28.0042 16.1503 28.0042 16.7072V30.2952C28.0042 30.8421 27.8504 30.9984 27.3148 30.9984C23.7714 30.999 20.2279 30.999 16.6845 30.9984Z" fill="#081733"/>
<path d="M44.3137 30.77C43.6836 30.3687 42.9148 30.4681 42.3404 31.042C40.1377 33.2422 37.9363 35.4438 35.7355 37.6459C35.0873 38.2947 34.3404 38.8767 33.8272 39.6199C33.3028 40.3781 33.0102 41.2964 32.6158 42.1446C32.6121 42.1533 32.6065 42.1615 32.6021 42.1702C32.4833 42.4053 32.4471 42.6403 32.649 42.8466C32.8509 43.0516 33.0778 43.0185 33.3215 42.9041C34.0791 42.5471 34.846 42.209 35.6017 41.8471C35.7992 41.752 35.9924 41.6227 36.1468 41.4683C38.8364 38.7886 41.5172 36.1001 44.2062 33.4204C44.555 33.0728 44.8825 32.7228 45 32.2271V31.8164C44.8762 31.3989 44.7012 31.0176 44.3137 30.77ZM41.4685 34.7412C39.5545 36.6508 37.6313 38.551 35.7405 40.4831C35.2661 40.9682 34.6579 41.1413 34.0822 41.4258C34.3472 40.8663 34.501 40.2737 34.9673 39.8149C36.9224 37.8922 38.852 35.9432 40.7915 34.0042C40.8597 33.9367 40.9309 33.8723 41.0128 33.7948C41.2591 34.0373 41.4816 34.2555 41.7591 34.5286C41.6566 34.6024 41.5503 34.6599 41.4685 34.7412ZM42.416 33.7429C42.2141 33.521 42.0004 33.2866 41.7704 33.0335C41.8504 32.9484 41.9485 32.8447 42.0366 32.7509C42.2748 32.9947 42.4954 33.221 42.7223 33.4535C42.6479 33.5241 42.5385 33.6273 42.416 33.7429ZM43.4992 32.6909C43.2642 32.4528 43.0423 32.2277 42.8198 32.0021C43.2148 31.502 43.5461 31.3864 43.8305 31.657C44.1168 31.9289 44.0255 32.219 43.4992 32.6909Z" fill="#081733"/>
<path d="M26.4754 32.9966C23.7126 33.0129 21.4925 35.265 21.5037 38.0391C21.515 40.782 23.7751 43.016 26.5254 43.0029C29.2712 42.9904 31.5127 40.7332 31.5033 37.9904C31.4933 35.23 29.2281 32.9804 26.4754 32.9966ZM26.506 42.004C24.3158 42.009 22.5113 40.2169 22.5013 38.0279C22.4919 35.8151 24.2702 34.0124 26.4791 33.9961C28.6812 33.9792 30.4876 35.772 30.5001 37.9854C30.5126 40.1844 28.7087 41.9996 26.506 42.004Z" fill="#1B1B1B"/>
<path d="M38.9863 29.5199H33.0065V30.4794H38.9863V29.5199Z" fill="#081733"/>
<path d="M38.9863 27.5121H33.0177V28.4798H38.9863V27.5121Z" fill="#1B1B1B"/>
<path d="M38.9857 25.5182H33.0127V26.4727H38.9857V25.5182Z" fill="#081733"/>
<path d="M38.9864 31.5276H33.0134V32.4884H38.9864V31.5276Z" fill="#081733"/>
<path d="M31.9827 29.5168H31.0107V30.4775H31.9827V29.5168Z" fill="#1B1B1B"/>
<path d="M31.9802 31.5251H31.0107V32.4896H31.9802V31.5251Z" fill="#081733"/>
<path d="M31.9852 25.5113H31.0164V26.4752H31.9852V25.5113Z" fill="#1B1B1B"/>
<path d="M31.9752 27.5203H31.0157V28.4766H31.9752V27.5203Z" fill="#081733"/>
<path d="M16.5201 16.5245V19.9756H27.4711V16.5245H16.5201ZM26.471 18.9773H17.5215V17.524H26.471V18.9773Z" fill="#081733"/>
<path d="M23.4982 28.531C23.4875 27.9441 23.1056 27.5315 22.5206 27.5009C22.1699 27.4828 21.8168 27.4815 21.4668 27.5022C20.8948 27.5359 20.5154 27.946 20.5061 28.5167C20.5004 28.8386 20.5004 29.1605 20.5061 29.4824C20.5154 30.0569 20.8911 30.4607 21.4668 30.4938C21.8168 30.5144 22.1699 30.5132 22.52 30.495C23.1106 30.4638 23.4875 30.0581 23.4982 29.468C23.5013 29.3124 23.4988 29.1561 23.4988 28.9998C23.4988 28.8436 23.5013 28.6873 23.4982 28.531ZM22.4856 29.473H21.523V28.5123H22.4856V29.473Z" fill="#1B1B1B"/>
<path d="M27.0035 28.5311C26.9879 27.931 26.591 27.5234 25.9916 27.4991C25.6603 27.4859 25.3278 27.4841 24.9965 27.4997C24.4071 27.5278 24.0264 27.926 24.0064 28.5167C24.0045 28.5748 24.0039 28.633 24.0039 28.6917C24.0039 28.7898 24.0058 28.8874 24.0058 28.9849C24.0052 29.073 24.0045 29.1605 24.0045 29.2487C24.0045 29.3074 24.0045 29.3655 24.0058 29.4243C24.0164 30.0875 24.3977 30.4819 25.0552 30.5001C25.3671 30.5088 25.6803 30.5113 25.9922 30.4976C26.5972 30.4707 26.9879 30.0706 27.0035 29.4681C27.0117 29.1555 27.0117 28.843 27.0035 28.5311ZM25.9891 29.4793H25.0284V28.5142H25.9891V29.4793Z" fill="#1B1B1B"/>
<path d="M19.9961 29.1599C19.9961 29.1105 19.9954 29.0611 19.9954 29.0117C19.9961 28.9267 19.9967 28.8417 19.9967 28.7567C19.9967 28.7142 19.9967 28.6717 19.9961 28.6292C19.9961 28.6004 19.9961 28.5717 19.9954 28.5429C19.9817 27.9072 19.586 27.5115 18.9441 27.4972C18.6322 27.4897 18.319 27.4859 18.0071 27.499C17.4077 27.5247 17.0114 27.9347 16.9996 28.5335C16.9933 28.8461 16.9927 29.1586 16.9996 29.4705C17.0121 30.0587 17.3958 30.4644 17.9834 30.495C18.324 30.5132 18.6672 30.5132 19.0078 30.4963C19.6041 30.4675 19.9786 30.0744 19.9948 29.4799C19.9979 29.3737 19.9967 29.2668 19.9961 29.1599ZM18.9803 29.4805H18.014V28.5185H18.9803V29.4805Z" fill="#1B1B1B"/>
<path d="M23.4945 21.4477C23.4751 20.932 23.0682 20.5263 22.5538 20.5082C22.1837 20.4951 21.8118 20.4944 21.4418 20.5082C20.9286 20.5276 20.5299 20.9376 20.5074 21.4546C20.4999 21.6396 20.5061 21.8252 20.5061 22.0109C20.5061 22.0109 20.5055 22.0109 20.5049 22.0109C20.5049 22.1671 20.5024 22.3234 20.5055 22.4791C20.5174 23.0766 20.9255 23.4873 21.5212 23.4973C21.8625 23.5023 22.205 23.5073 22.5456 23.4948C23.0607 23.4754 23.4732 23.0723 23.4945 22.5603C23.5095 22.1903 23.5089 21.8184 23.4945 21.4477ZM22.4788 22.4803H21.5206V21.5083H22.4788V22.4803Z" fill="#1B1B1B"/>
<path d="M19.9954 21.9983C19.9954 21.8427 19.9991 21.6864 19.9947 21.5302C19.9791 20.9076 19.581 20.5119 18.9603 20.5044C18.6384 20.5006 18.3159 20.4981 17.994 20.5057C17.4458 20.5182 17.0289 20.9132 17.0032 21.4601C16.9864 21.8202 16.9857 22.1827 17.0032 22.5428C17.0301 23.0885 17.4489 23.4835 17.9971 23.496C18.329 23.5035 18.6609 23.5035 18.9922 23.4966C19.5622 23.4854 19.9685 23.0903 19.9929 22.5253C20.0004 22.3503 19.9941 22.174 19.9941 21.9983C19.9947 21.9983 19.9947 21.9983 19.9954 21.9983ZM18.9753 22.4859H18.0133V21.5264H18.9753V22.4859Z" fill="#1B1B1B"/>
<path d="M27.0022 21.5102C26.9828 20.9139 26.5678 20.5144 25.9703 20.5044C25.814 20.5013 25.6577 20.5038 25.5021 20.5038C25.3458 20.5038 25.1896 20.5013 25.0333 20.5044C24.427 20.5144 24.0257 20.9039 24.0082 21.5089C23.9982 21.8409 23.9976 22.1728 24.0082 22.5047C24.0276 23.091 24.4326 23.4867 25.0171 23.4973C25.3396 23.5029 25.6615 23.5029 25.9834 23.4967C26.5628 23.4867 26.9785 23.086 27.0016 22.5059C27.0147 22.1746 27.0135 21.8421 27.0022 21.5102ZM25.9928 22.4822H25.0214V21.5252H25.9928V22.4822Z" fill="#1B1B1B"/>
<path d="M23.4944 24.9475C23.4744 24.4405 23.0881 24.048 22.5825 24.013C22.3881 23.9992 22.1924 24.0105 21.9968 24.0105V24.0049C21.8411 24.0049 21.6849 24.0011 21.5286 24.0055C20.9048 24.0236 20.5129 24.4205 20.5054 25.0431C20.5017 25.3556 20.5004 25.6682 20.506 25.9801C20.5154 26.5614 20.9129 26.9777 21.4924 27.0009C21.8336 27.0146 22.1762 27.0152 22.5168 27.0002C23.0837 26.9752 23.4844 26.5627 23.4969 26.0014C23.5044 25.6501 23.5082 25.2981 23.4944 24.9475ZM22.4849 25.9895H21.5261V25.0256H22.4849V25.9895Z" fill="#1B1B1B"/>
<path d="M19.9854 24.9006C19.9616 24.4337 19.5866 24.0586 19.1215 24.0174C18.9178 23.9992 18.7121 24.0142 18.5071 24.0142V24.0049C18.3508 24.0049 18.1946 24.0011 18.0383 24.0055C17.4033 24.0224 17.007 24.4237 16.9989 25.0619C16.9945 25.3744 16.9907 25.6869 17.0007 25.9989C17.0176 26.552 17.4039 26.9658 17.9521 26.9971C18.3215 27.0184 18.6946 27.0196 19.064 26.9959C19.5703 26.9633 19.9597 26.5839 19.9847 26.1001C20.006 25.7013 20.0054 25.2994 19.9854 24.9006ZM18.9715 25.9851H18.0221V25.015H18.9715V25.9851Z" fill="#1B1B1B"/>
<path d="M27.0017 24.9906C26.9785 24.4199 26.5797 24.0273 26.0084 24.0086C25.6672 23.9967 25.3253 23.9961 24.984 24.0086C24.4083 24.0292 24.0289 24.4199 24.007 25.0006C24.0045 25.0625 24.0039 25.1244 24.0039 25.1862C24.0039 25.2906 24.0064 25.3944 24.0058 25.4982C24.0052 25.5775 24.0045 25.6576 24.0045 25.7376C24.0045 25.7776 24.0045 25.8169 24.0052 25.857C24.0052 25.8838 24.0052 25.9107 24.0058 25.9376C24.0189 26.5927 24.4164 26.9933 25.0671 27.0033C25.3796 27.0083 25.6922 27.0133 26.0041 27.0015C26.5704 26.979 26.976 26.5802 27.001 26.0151C27.016 25.6744 27.0154 25.3319 27.0017 24.9906ZM25.9891 25.9876H25.0227V25.0268H25.9891V25.9876Z" fill="#081733"/>
<path d="M28.4911 38.9836C28.4999 39.5562 28.178 39.9324 27.7067 40.1925C27.4967 40.3087 27.2617 40.3794 27.0185 40.4788C27.0098 40.6307 27.0004 40.8026 26.9898 40.9888H26.0222C26.0122 40.8113 26.0028 40.6413 25.9934 40.4763C24.9127 40.07 24.5752 39.7443 24.5083 39.0073C24.8071 39.0073 25.1034 39.0042 25.3996 39.0105C25.4403 39.0111 25.4871 39.0461 25.519 39.0773C25.9659 39.5155 26.5997 39.638 27.1473 39.3568C27.286 39.2849 27.4667 39.1161 27.4642 38.9955C27.4617 38.8717 27.2792 38.6985 27.1379 38.6429C26.9085 38.5529 26.6491 38.5198 26.3997 38.501C25.9434 38.4673 25.5146 38.3635 25.1352 38.0997C24.2902 37.5134 24.2808 36.4883 25.1315 35.9119C25.3846 35.74 25.6865 35.6413 25.9953 35.495C26.0016 35.3713 26.0091 35.2075 26.0184 35.02H26.9898C26.9991 35.1962 27.0091 35.3669 27.0191 35.5413C27.7642 35.7525 28.388 36.0788 28.5068 36.9971C28.1786 36.9971 27.9067 37.0021 27.6354 36.9927C27.5798 36.9908 27.5129 36.9471 27.4736 36.9033C27.0616 36.4458 26.1666 36.3601 25.6834 36.737C25.4453 36.9227 25.4315 37.1265 25.7034 37.2627C25.9559 37.3896 26.2528 37.4284 26.5316 37.4996C26.9148 37.5978 27.3217 37.6403 27.6779 37.7978C28.1674 38.0141 28.483 38.4135 28.4911 38.9836Z" fill="#081733"/>
</g>
<defs>
<clipPath id="clip0_634_7278">
<rect width="30" height="30" fill="white" transform="translate(15 15)"/>
</clipPath>
</defs>
</svg>
