<svg width="60" height="60" viewBox="0 0 60 60" fill="none" xmlns="http://www.w3.org/2000/svg">
<circle cx="30" cy="30" r="30" fill="#DAF3E1"/>
<g clip-path="url(#clip0_634_7187)">
<path d="M44.9975 23.0525C44.9975 22.122 44.355 21.495 43.4167 21.4884C43.1184 21.4867 42.8192 21.4884 42.5217 21.4884V21.0065C43.8709 20.8981 44.4625 20.4578 44.4967 19.5524C44.5117 19.1722 44.395 18.8345 44.1584 18.5386C43.7342 18.01 43.1417 17.9474 42.4992 17.9891V15.708C42.4984 15.0676 42.2467 14.8817 41.6368 15.0701C39.7301 15.6596 37.8244 16.2541 35.9136 16.8327C35.6203 16.9219 35.3061 16.9736 34.9994 16.9794C34.0311 16.9978 33.0628 16.9836 32.0937 16.9869C31.6845 16.9886 31.5079 17.1704 31.5004 17.5789C31.4979 17.7098 31.4995 17.8399 31.4995 17.9866C31.1646 17.9866 30.8737 17.9833 30.5837 17.9874C30.1912 17.9933 30.0046 18.1725 30.0013 18.5586C29.9954 19.1739 29.9963 19.7883 30.0013 20.4036C30.0046 20.8072 30.1887 20.9823 30.6029 20.9873C30.8921 20.9906 31.1812 20.9881 31.4812 20.9881V21.4658H28.4996C28.4996 20.006 28.5005 18.5694 28.4988 17.132C28.4988 16.6593 28.3288 16.4867 27.8638 16.4867C24.6247 16.485 21.3857 16.485 18.1457 16.4867C17.6633 16.4867 17.5008 16.6551 17.4999 17.152C17.4991 18.476 17.4999 19.7992 17.4999 21.1223V21.4884H16.6975C15.5942 21.4892 15 22.0828 15 23.1867V38.787C15 39.9076 15.5917 40.4979 16.7166 40.4979H27.9738V41.9986C27.0005 41.9986 26.053 41.9969 25.1047 41.9994C24.6897 42.0011 24.5047 42.1787 24.5014 42.5806C24.4964 43.1959 24.4956 43.8104 24.5014 44.4257C24.5047 44.8125 24.6906 44.9984 25.0822 44.9984C28.363 45.0009 31.6437 45.0009 34.9244 44.9984C35.3111 44.9984 35.4944 44.8084 35.4978 44.4173C35.5028 43.8028 35.5036 43.1875 35.4978 42.5731C35.4944 42.1862 35.3078 42.0019 34.9169 42.0003C34.0628 41.9961 33.2087 41.9986 32.3545 41.9986H32.0112V40.4979H32.417C36.0836 40.4979 39.7501 40.4995 43.4159 40.497C44.3534 40.4962 44.9975 39.8625 44.9975 38.9337C45.0008 33.6403 45.0008 28.346 44.9975 23.0525ZM31.4779 19.9676H31.0162V19.0013H31.4779V19.9676ZM42.5101 19.0038C42.8301 18.9971 43.1776 18.8771 43.3884 19.2039C43.4717 19.3331 43.4867 19.5774 43.4217 19.7175C43.24 20.1043 42.8592 19.9609 42.5101 19.9918V19.0038ZM36.0094 17.8557C37.8219 17.2963 39.6368 16.736 41.4776 16.1682V22.8057C39.6518 22.2429 37.8319 21.6818 36.0094 21.1198V17.8557ZM32.517 18.0016H34.9761V20.9681H32.517V18.0016ZM33.9203 22.0086C33.802 22.8324 33.6853 23.6428 33.5662 24.4707H33.0203V22.0086H33.9203ZM18.5166 17.5114H27.4772V24.4757H18.5166V17.5114ZM34.4786 43.0108V43.9821H25.5155V43.0108H34.4786ZM29.0171 41.9786V40.5129H30.9762V41.9786H29.0171ZM43.9917 39.0371C43.9609 39.3098 43.7934 39.4657 43.52 39.4932C43.4067 39.5049 43.2909 39.4974 43.1767 39.4974C34.4095 39.4974 25.6422 39.4924 16.8758 39.5057C16.0233 39.5074 15.935 39.2114 16.025 38.5085H43.995C43.995 38.6911 44.0109 38.8662 43.9917 39.0371ZM43.9992 23.1492V37.478H16V23.2192C16 22.6264 16.1391 22.4897 16.7391 22.4889H17.4849C17.4908 22.6022 17.4991 22.7023 17.4991 22.8015C17.5008 23.5102 17.4958 24.2189 17.5016 24.9276C17.5049 25.2969 17.6933 25.4879 18.0624 25.4887C21.354 25.4912 24.6456 25.4912 27.9363 25.4887C28.3155 25.4879 28.4963 25.2911 28.498 24.8959C28.5021 24.1063 28.4996 23.3159 28.4996 22.5047H31.9995V24.7625C31.9995 25.3528 32.1404 25.4904 32.7412 25.4904C33.1262 25.4904 33.5112 25.4929 33.897 25.4895C34.2836 25.4862 34.4486 25.3445 34.5036 24.9676C34.6311 24.0922 34.7545 23.2159 34.8811 22.3405C34.8978 22.2287 34.9244 22.1195 34.9553 21.9611C35.2094 21.9978 35.4611 22.0028 35.6928 22.0728C37.6727 22.6756 39.6476 23.2893 41.6251 23.9004C42.2551 24.0947 42.4984 23.9129 42.4992 23.2476V22.4989C42.8759 22.4989 43.2434 22.4563 43.5917 22.5189C43.7459 22.5464 43.87 22.7798 43.9884 22.9341C44.0242 22.9808 43.9992 23.0758 43.9992 23.1492Z" fill="#081733"/>
<path d="M30.3121 27.4913H17.6875C17.155 27.4913 17 27.6463 17 28.1783V35.8071C17 36.3399 17.1558 36.4958 17.6875 36.4958H30.3113C30.8429 36.4958 30.9996 36.339 30.9996 35.8079V28.1791C30.9996 27.6472 30.8438 27.4913 30.3121 27.4913ZM28.6638 28.5084C28.5638 28.581 28.5005 28.6343 28.4297 28.6777C27.0322 29.5406 25.6323 30.4002 24.2356 31.264C24.0948 31.3507 23.984 31.4032 23.8148 31.2973C22.3674 30.3961 20.9141 29.5048 19.4624 28.6102C19.4308 28.5902 19.4033 28.5635 19.3341 28.5084H28.6638ZM29.9838 35.4769H18.0175V28.9078C18.1325 28.9737 18.2283 29.0254 18.3208 29.0821C20.0566 30.1509 21.7965 31.2123 23.5223 32.297C23.8748 32.5188 24.1481 32.5038 24.4915 32.2887C26.2189 31.2065 27.9589 30.1434 29.6946 29.0746C29.7796 29.022 29.8696 28.977 29.9838 28.9136V35.4769Z" fill="#081733"/>
<path d="M42.9975 29.0879C42.9967 28.6785 42.8142 28.5001 42.4075 28.4926C42.2767 28.4901 42.1467 28.4917 41.9992 28.4917C41.9992 27.9915 42.0025 27.5346 41.9975 27.0769C41.9934 26.6842 41.8134 26.4932 41.4292 26.4924C38.4726 26.4899 35.5169 26.4899 32.5603 26.4924C32.1912 26.4932 32.002 26.6842 32.0012 27.0544C31.9978 29.0128 31.9978 30.9705 32.0012 32.929C32.002 33.2992 32.1912 33.4842 32.5586 33.4926C32.8595 33.4993 33.1595 33.4942 33.4994 33.4942C33.4994 33.9737 33.4978 34.4097 33.4994 34.8458C33.5019 35.3193 33.6694 35.4944 34.1311 35.4944C36.8794 35.4961 39.6276 35.4961 42.3759 35.4944C42.8225 35.4944 42.9975 35.3168 42.9983 34.8683C43.0008 34.0037 42.9992 33.1391 42.9992 32.2745C42.9992 31.2123 43.0017 30.1501 42.9975 29.0879ZM33.4994 29.1746C33.4986 30.266 33.4994 31.3582 33.4994 32.4821H33.017V27.5071H40.9734V28.4917H34.1911C33.6561 28.4917 33.5003 28.646 33.4994 29.1746ZM41.975 34.4731H34.5136V29.5081H41.975V34.4731Z" fill="#081733"/>
<path d="M25.1597 20.5228C24.2139 20.0209 23.2523 19.5481 22.2915 19.0762C21.8457 18.857 21.5065 19.0812 21.5007 19.5873C21.4957 20.0459 21.4998 20.5044 21.4998 20.9622C21.4998 21.4416 21.4948 21.921 21.5015 22.4004C21.5073 22.8881 21.8465 23.1174 22.274 22.9082C23.2456 22.4329 24.2148 21.9527 25.1714 21.4483C25.3181 21.3699 25.4806 21.1481 25.4739 20.9989C25.4672 20.8321 25.3131 20.6045 25.1597 20.5228ZM22.5107 21.6759V20.3052C22.9598 20.5286 23.3831 20.7396 23.8764 20.9847C23.4023 21.2248 22.9773 21.4391 22.5107 21.6759Z" fill="#081733"/>
<path d="M40.9793 30.5153H37.5144V31.4774H40.9793V30.5153Z" fill="#081733"/>
<path d="M40.9926 32.5138H38.5227V33.4684H40.9926V32.5138Z" fill="#081733"/>
<path d="M37.4843 32.5146H35.5236V33.4792H37.4843V32.5146Z" fill="#081733"/>
<path d="M36.476 30.5086H35.5144V31.4724H36.476V30.5086Z" fill="#081733"/>
</g>
<defs>
<clipPath id="clip0_634_7187">
<rect width="30" height="30" fill="white" transform="translate(15 15)"/>
</clipPath>
</defs>
</svg>
