<svg width="60" height="60" viewBox="0 0 60 60" fill="none" xmlns="http://www.w3.org/2000/svg">
<circle cx="30" cy="30" r="30" fill="#BEE2DE"/>
<g clip-path="url(#clip0_634_7225)">
<path d="M45 21.4566C45.0039 20.6974 44.3862 20.1803 43.5819 20.5302C39.6359 22.2518 35.6758 23.9429 31.7126 25.6238C31.1441 25.8652 30.92 26.2183 30.9223 26.8307C30.9395 30.6573 30.9309 34.4839 30.9309 38.3114V38.6519C30.8013 38.5879 30.7177 38.5418 30.6302 38.5035C28.7787 37.6849 26.9747 37.7419 25.3012 38.9222C24.2243 39.6822 23.6925 40.7586 23.9783 42.1021C24.2212 43.2448 24.9787 44.0142 26.0165 44.4743C26.5694 44.7196 27.1824 44.8289 27.7681 45H28.8224C29.2738 44.8875 29.7392 44.8125 30.175 44.6547C31.8664 44.0424 32.688 42.8465 32.688 41.0546C32.688 37.6865 32.6903 34.3183 32.6825 30.9502C32.6825 30.7253 32.7387 30.6136 32.9582 30.5198C36.2748 29.1076 39.5859 27.6836 42.8993 26.2628C43.0009 26.2198 43.1063 26.1862 43.2172 26.1456V33.3693C43.1102 33.317 43.0258 33.2732 42.9399 33.235C41.0899 32.4132 39.2899 32.4726 37.607 33.6403C35.8062 34.8909 35.7265 37.2022 37.3938 38.6254C38.8666 39.8822 41.3289 40.0954 43.0899 39.1058C44.337 38.4043 45.0031 37.3764 44.9961 35.8954C44.9735 31.0822 44.975 26.269 45 21.4566ZM30.2156 42.6707C29.6392 43.0816 28.9809 43.2316 28.2851 43.2456C27.5753 43.2269 26.9107 43.0675 26.3328 42.6387C25.4355 41.9732 25.441 40.9921 26.339 40.3243C27.398 39.5377 29.1551 39.5283 30.2234 40.3024C31.1636 40.9851 31.1628 41.9951 30.2156 42.6707ZM42.5253 37.3928C41.4624 38.1669 39.6975 38.1583 38.641 37.3748C37.7312 36.6999 37.7359 35.7111 38.6542 35.0424C39.2274 34.6245 39.8834 34.4722 40.5597 34.4519C41.2774 34.4652 41.9357 34.6144 42.5128 35.0245C43.4608 35.6993 43.4647 36.7085 42.5253 37.3928ZM43.2187 24.0538C43.214 24.146 43.0789 24.2678 42.9759 24.3131C41.539 24.9388 40.0966 25.5535 38.655 26.1714C36.7667 26.9814 34.8785 27.7906 32.9894 28.5999C32.9019 28.6374 32.8129 28.6709 32.688 28.7202C32.688 28.2148 32.6747 27.7555 32.6989 27.2985C32.7036 27.2032 32.8278 27.0744 32.9277 27.0306C34.9386 26.1597 36.9542 25.2989 38.9682 24.4358C40.2661 23.8796 41.564 23.3219 42.8619 22.7658C42.9759 22.7166 43.0914 22.6713 43.2304 22.6142C43.2304 23.1188 43.2437 23.5875 43.2187 24.0538Z" fill="#081733"/>
<path d="M28.9864 23.9271C28.8536 23.3014 28.7005 22.6609 28.4272 22.0884C27.9829 21.1596 27.4776 20.252 26.9153 19.3889C25.9657 17.9298 24.8287 16.6136 23.6214 15.3591C23.2833 15.0076 22.9389 14.9147 22.5703 15.0772C22.1751 15.2514 22.0111 15.5716 22.0275 15.9942C22.0307 16.0723 22.0283 16.1504 22.0283 16.2285V27.9936C20.9288 27.3999 19.8058 27.1929 18.6211 27.3663C17.463 27.5351 16.4595 28.0022 15.6942 28.9184C15.3288 29.3566 15.1492 29.876 15 30.4127V31.2328C15.0164 31.2664 15.0422 31.2984 15.0492 31.3344C15.1913 32.0959 15.567 32.7318 16.1659 33.2043C17.8027 34.4971 19.6231 34.6775 21.5082 33.8909C23.0084 33.2653 23.812 32.1342 23.7963 30.4267C23.7612 26.4634 23.7854 22.4992 23.7854 18.5359V18.1579C24.0384 18.4695 24.2383 18.7078 24.4289 18.9538C25.4058 20.2129 26.3008 21.519 26.9286 22.9984C27.4745 24.2849 27.3987 25.4846 26.5538 26.6141C26.3265 26.9188 26.0954 27.2218 25.8463 27.5085C25.4581 27.9553 25.4441 28.4872 25.8322 28.8356C26.2149 29.1801 26.7654 29.1566 27.1246 28.7083C27.5924 28.1248 28.0524 27.5249 28.4303 26.8813C28.9622 25.9767 29.2074 24.9769 28.9864 23.9271ZM21.3161 32.0061C20.7406 32.4178 20.0823 32.5685 19.3872 32.5833C18.6774 32.5662 18.012 32.4068 17.4341 31.9796C16.5345 31.3148 16.5369 30.3322 17.4334 29.6643C18.49 28.877 20.2463 28.8645 21.3169 29.6378C22.2595 30.3181 22.2618 31.3289 21.3161 32.0061Z" fill="#081733"/>
</g>
<defs>
<clipPath id="clip0_634_7225">
<rect width="30" height="30" fill="white" transform="translate(15 15)"/>
</clipPath>
</defs>
</svg>
