<svg width="60" height="60" viewBox="0 0 60 60" fill="none" xmlns="http://www.w3.org/2000/svg">
<circle cx="30" cy="30" r="30" fill="#D0E1FF"/>
<g clip-path="url(#clip0_634_7238)">
<path d="M44.3336 15.0027C36.9227 15.0082 29.5125 15.0066 22.1016 15.0074C22.0336 15.0074 21.9648 15.0058 21.8969 15.0145C21.6727 15.043 21.543 15.1851 21.518 15.4015C21.493 15.621 21.5977 15.7924 21.8109 15.8555C21.9383 15.8934 22.0797 15.8934 22.2148 15.8942C29.3914 15.8958 36.5672 15.895 43.7438 15.895H44.1008V34.312H36.0156C36.0797 34.1888 36.1258 34.094 36.1781 34.0032C36.7031 33.0801 37.2422 32.1648 37.7516 31.233C38.307 30.2175 38.0492 28.9919 37.1633 28.3112C36.6414 27.91 36.3063 27.9779 35.9773 28.5544C34.9281 30.3896 33.8758 32.2225 32.8375 34.064C32.718 34.2757 32.5875 34.338 32.3578 34.3372C26.9781 34.3317 21.5984 34.3325 16.2188 34.3325H15.9023V15.895C17.1844 15.895 18.4437 15.8966 19.7023 15.8934C19.818 15.8934 19.9398 15.8895 20.0477 15.8532C20.2602 15.7821 20.3875 15.5997 20.3172 15.3959C20.2664 15.2467 20.0984 15.1314 19.9672 15.0201C19.9258 14.9853 19.8352 15.0074 19.7664 15.0074C18.3898 15.0066 17.0133 15.0122 15.6367 15.0027C15.3383 15.0003 15.1281 15.1022 15 15.373V34.8584C15.1422 35.1577 15.3875 35.2264 15.6992 35.2256C20.2195 35.2193 24.7398 35.2209 29.2602 35.2225C29.6297 35.2225 30.0695 35.1135 30.35 35.2778C30.6297 35.442 30.7203 35.9079 30.9453 36.2009C31.2594 36.6107 31.2687 36.97 30.9461 37.3775C30.7516 37.6247 30.618 37.9216 30.4453 38.2162C30.2922 38.0898 30.1813 37.9958 30.0688 37.9042C28.4672 36.6092 26.1273 36.7939 24.7406 38.3243C23.318 39.895 23.3336 42.257 24.775 43.77C26.5789 45.6629 29.6445 45.3257 30.9883 43.0735C31.6031 42.0445 32.1828 40.9935 32.7789 39.9527C32.8211 39.88 32.8703 39.8121 32.9375 39.7102C33.2 40.1675 33.4359 40.5963 33.6906 41.0124C33.7633 41.1309 33.882 41.2754 33.9984 41.2951C34.1383 41.3188 34.3297 41.2612 34.4422 41.1688C34.6117 41.0282 34.5883 40.8197 34.4789 40.6294C34.1664 40.0838 33.8523 39.5381 33.5469 38.9885C33.5039 38.9111 33.4586 38.7871 33.4906 38.7247C33.6672 38.382 33.8672 38.0511 34.0758 37.6863C34.2711 38.0211 34.4328 38.3251 34.6195 38.6126C34.9469 39.1172 35.5813 39.2151 36.0508 38.8455C36.143 38.7729 36.2273 38.6908 36.318 38.6157C37.3156 37.7897 38.7469 37.7037 39.8477 38.4025C40.957 39.1069 41.5062 40.4352 41.2125 41.701C40.9203 42.9614 39.9773 43.8513 38.6984 44.0756C37.5172 44.2825 36.3016 43.7084 35.6211 42.6226C35.4234 42.3075 35.1891 42.2135 34.9508 42.3541C34.7086 42.4978 34.6781 42.7568 34.8664 43.0759C35.7719 44.6157 37.6492 45.3517 39.3539 44.8361C41.075 44.3149 42.2672 42.6771 42.168 40.8908C42.0766 39.2633 41.2859 38.0551 39.8109 37.3933C38.3195 36.7245 36.9156 36.9787 35.6508 38.018C35.5789 38.0764 35.507 38.1348 35.4047 38.2185C35.1352 37.7495 34.8805 37.3207 34.6445 36.8808C34.6109 36.8184 34.6477 36.6929 34.6883 36.6178C34.8953 36.2372 35.1234 35.8692 35.325 35.4862C35.4273 35.2904 35.5469 35.2138 35.7781 35.2146C38.6289 35.2248 41.4797 35.2177 44.3305 35.2264C44.6375 35.2272 44.8602 35.1364 45 34.8584V15.373C44.8664 15.0864 44.6398 15.0027 44.3336 15.0027ZM32.1437 35.2462C32.0281 35.4562 31.9195 35.656 31.7828 35.904C31.6453 35.6639 31.5352 35.472 31.4055 35.2462H32.1437ZM30.8555 41.5447C30.6555 41.8937 30.4594 42.2459 30.2523 42.5918C29.5008 43.8474 28.0445 44.4057 26.6836 43.9643C25.3648 43.5355 24.4555 42.1906 24.5672 40.8332C24.6906 39.3367 25.7672 38.1554 27.2219 37.9587C28.0828 37.8419 28.8656 38.0677 29.5469 38.6228C29.6305 38.6908 29.7086 38.7658 29.7922 38.8329C30.2711 39.2175 30.9086 39.1227 31.2437 38.6047C31.4297 38.3172 31.5906 38.0132 31.75 37.7384C32.0812 37.9311 32.3891 38.1096 32.7094 38.2951C32.1016 39.3612 31.4789 40.4533 30.8555 41.5447ZM32.925 37.3475C32.6172 37.3451 32.3742 37.0932 32.3805 36.7797C32.3852 36.4836 32.6273 36.2364 32.918 36.2293C33.2195 36.223 33.4742 36.4773 33.4758 36.7868C33.4781 37.1011 33.2336 37.3491 32.925 37.3475ZM34.1836 35.716C34.1547 35.7666 34.1219 35.8155 34.1039 35.8432C33.7812 35.6536 33.4836 35.4791 33.15 35.2825C34.3125 33.2467 35.493 31.1801 36.6727 29.1135C37.0836 29.378 37.2687 29.9758 37.107 30.5041C37.0672 30.6352 37.0109 30.7631 36.9438 30.8816C36.0258 32.4941 35.1039 34.1051 34.1836 35.716Z" fill="#081733"/>
<path d="M30 18.8655C26.5898 18.8655 23.8148 21.6688 23.8164 25.1126C23.818 28.558 26.5938 31.3638 30 31.3638C33.407 31.3638 36.1852 28.5549 36.1836 25.1126C36.1813 21.6657 33.4102 18.8647 30 18.8655ZM29.9797 30.4754C27.0586 30.4667 24.6703 28.0297 24.6961 25.085C24.7219 22.1134 27.0977 19.7412 30.0344 19.7539C32.9445 19.7657 35.3156 22.1829 35.3039 25.1261C35.293 28.0882 32.9078 30.4833 29.9797 30.4754Z" fill="#081733"/>
<path d="M19.1429 20.6517C19.1351 20.3169 18.9344 20.1313 18.5992 20.1203C18.3367 20.1116 18.0726 20.1187 17.8094 20.1187C17.5461 20.1187 17.282 20.1124 17.0195 20.1203C16.6656 20.1305 16.4719 20.3201 16.4672 20.6707C16.4601 21.2029 16.4601 21.736 16.4664 22.2682C16.4711 22.6228 16.6609 22.8226 17.0086 22.8281C17.5351 22.8368 18.0625 22.836 18.589 22.8281C18.9375 22.8234 19.1367 22.6315 19.1445 22.2785C19.1554 21.7368 19.157 21.1935 19.1429 20.6517ZM18.2445 21.9263H17.3531V21.0276H18.2445V21.9263Z" fill="#1B1B1B"/>
<path d="M43.6883 21.3738C43.6883 21.1077 43.6922 20.8408 43.6867 20.5747C43.6789 20.2028 43.493 20.0109 43.1234 20.0053C42.6062 19.9982 42.0891 19.9982 41.5719 20.0053C41.218 20.0101 41.0172 20.1972 41.0094 20.5471C40.9969 21.0896 40.9969 21.6321 41.0094 22.1738C41.0164 22.5126 41.2141 22.7068 41.5445 22.7124C42.0813 22.7218 42.618 22.7218 43.1539 22.7124C43.4867 22.7068 43.6766 22.5078 43.6859 22.1722C43.6945 21.9061 43.6875 21.64 43.6883 21.3738ZM42.7891 21.8042H41.9008V20.9032H42.7891V21.8042Z" fill="#081733"/>
<path d="M43.6882 28.6136V27.8445C43.675 27.4875 43.4921 27.2901 43.1453 27.2846C42.6187 27.2775 42.0914 27.2783 41.5648 27.2846C41.214 27.2885 41.0156 27.4765 41.0085 27.831C40.9968 28.3633 40.9984 28.8955 41.0078 29.4278C41.014 29.7847 41.2054 29.9837 41.5523 29.9908C42.0882 30.0011 42.625 30.0027 43.1617 29.99C43.4921 29.9821 43.6773 29.7784 43.6859 29.4412C43.6937 29.1656 43.6875 28.8892 43.6882 28.6136ZM42.7898 29.0779H41.8984V28.1896H42.7898V29.0779Z" fill="#081733"/>
<path d="M19.1437 27.939C19.1367 27.5978 18.9398 27.4051 18.6094 27.4004C18.0734 27.3925 17.5367 27.3925 17 27.4004C16.6672 27.4051 16.4765 27.601 16.4664 27.9374C16.4586 28.2027 16.4648 28.4696 16.4648 28.7357C16.4648 29.0019 16.4609 29.268 16.4664 29.5341C16.4726 29.8926 16.6539 30.0979 16.9984 30.1051C17.5344 30.1169 18.0719 30.1169 18.6078 30.1051C18.9406 30.0979 19.1359 29.9029 19.1437 29.5657C19.1562 29.0232 19.1562 28.4807 19.1437 27.939ZM18.2508 29.2103H17.3656V28.3101H18.2508V29.2103Z" fill="#1B1B1B"/>
<path d="M19.1438 31.5778C19.1367 31.2477 18.9563 31.0511 18.6391 31.0424C18.0836 31.0274 17.5274 31.0274 16.9719 31.0416C16.65 31.0503 16.4766 31.2485 16.4672 31.5747C16.4641 31.6797 16.4633 31.7847 16.4633 31.8897C16.4633 32.0508 16.4656 32.2119 16.4656 32.373C16.4649 32.5428 16.4625 32.7134 16.4625 32.8832C16.4625 32.989 16.4633 33.0956 16.4664 33.2014C16.4766 33.5386 16.6641 33.7321 16.9977 33.7368C17.5344 33.7447 18.0703 33.7447 18.6071 33.7368C18.9399 33.7321 19.136 33.5441 19.1438 33.2038C19.1563 32.6621 19.1555 32.1195 19.1438 31.5778ZM18.2516 32.8255H17.3586V31.9403H18.2516V32.8255Z" fill="#081733"/>
<path d="M43.5343 31.6086C43.5273 31.2453 43.3547 31.0479 43.0031 31.04C42.4672 31.0266 41.9304 31.0274 41.3945 31.0392C41.0539 31.0471 40.864 31.2351 40.8562 31.5738C40.8437 32.1156 40.8445 32.6581 40.8554 33.1998C40.8633 33.5417 41.0562 33.732 41.3883 33.7368C41.925 33.7447 42.4609 33.7447 42.9976 33.7368C43.3453 33.732 43.5258 33.537 43.5336 33.1761C43.539 32.9203 43.5351 32.6636 43.5351 32.407C43.5351 32.1408 43.539 31.8747 43.5343 31.6086ZM42.6445 32.8287H41.7468V31.9403H42.6445V32.8287Z" fill="#1B1B1B"/>
<path d="M19.1422 24.2748C19.1336 23.9637 18.9445 23.7757 18.6414 23.7694C18.0859 23.7576 17.5305 23.7576 16.975 23.7686C16.6641 23.7749 16.4758 23.9597 16.4695 24.2661C16.4578 24.8276 16.4586 25.3891 16.4687 25.9505C16.4742 26.2577 16.6625 26.4441 16.9656 26.4575C17.2383 26.4693 17.5117 26.4599 17.7844 26.4599C17.7844 26.4607 17.7844 26.4607 17.7844 26.4614C18.057 26.4614 18.3305 26.4678 18.6031 26.4599C18.9422 26.4496 19.1352 26.2711 19.143 25.9308C19.1562 25.3788 19.157 24.8268 19.1422 24.2748ZM18.2578 25.5502H17.3648V24.6704H18.2578V25.5502Z" fill="#081733"/>
<path d="M43.5312 17.0003C43.525 16.682 43.3297 16.5004 43.0062 16.4901C42.743 16.4822 42.4797 16.4885 42.2164 16.4885C41.9437 16.4885 41.6703 16.4822 41.3976 16.4893C41.0594 16.4988 40.864 16.6773 40.8562 17.0176C40.8437 17.5688 40.8437 18.1216 40.8578 18.6728C40.8656 18.9832 41.0523 19.1743 41.3562 19.1814C41.9219 19.194 42.4875 19.194 43.0523 19.179C43.3437 19.1711 43.525 18.9784 43.5305 18.6854C43.5414 18.124 43.5414 17.5617 43.5312 17.0003ZM42.639 18.2819H41.7476V17.3998H42.639V18.2819Z" fill="#1B1B1B"/>
<path d="M43.5328 24.3119C43.5281 23.9669 43.3484 23.7742 43.0125 23.7679C42.4664 23.7576 41.9203 23.7576 41.3742 23.7686C41.0547 23.7742 40.8648 23.9613 40.857 24.2875C40.8437 24.8395 40.8437 25.3914 40.857 25.9434C40.8656 26.2672 41.0594 26.4472 41.3797 26.4591C41.6422 26.4686 41.9054 26.4607 42.1687 26.4615C42.4422 26.4615 42.7148 26.4678 42.9883 26.4599C43.3429 26.4504 43.5289 26.2656 43.5328 25.9087C43.5398 25.3764 43.5398 24.8442 43.5328 24.3119ZM42.6383 25.5565H41.7468V24.6641H42.6383V25.5565Z" fill="#1B1B1B"/>
<path d="M19.1438 17.02C19.1359 16.6797 18.9414 16.4949 18.6047 16.4901C18.0688 16.483 17.532 16.4823 16.9961 16.4909C16.6594 16.4957 16.4766 16.6868 16.4664 17.0271C16.4594 17.2925 16.4649 17.5594 16.4649 17.8255C16.4649 18.0916 16.4609 18.3577 16.4664 18.6239C16.4734 18.9848 16.6477 19.1766 17.0031 19.1845C17.5391 19.1956 18.0758 19.1956 18.6117 19.1838C18.9508 19.1766 19.1367 18.9895 19.1438 18.646C19.1563 18.1043 19.1563 17.5617 19.1438 17.02ZM18.2328 18.2883H17.3633V17.3951H18.2328V18.2883Z" fill="#081733"/>
<path d="M38.2445 39.064C37.1774 39.0592 36.3094 39.9303 36.3039 41.0113C36.2985 42.0916 37.1586 42.9705 38.2258 42.9737C39.2953 42.9769 40.1625 42.1098 40.1703 41.0295C40.1789 39.9587 39.3063 39.0687 38.2445 39.064ZM38.1852 42.0845C37.6164 42.0632 37.168 41.5736 37.1828 40.9916C37.1985 40.4001 37.6867 39.9342 38.2711 39.9532C38.8391 39.9721 39.3008 40.4609 39.2914 41.0342C39.282 41.6368 38.786 42.1074 38.1852 42.0845Z" fill="#081733"/>
<path d="M27.6515 39.0648C26.5851 39.0514 25.7109 39.9074 25.6851 40.9908C25.6609 42.0427 26.5218 42.9524 27.5633 42.9737C28.6562 42.9958 29.5336 42.1469 29.5523 41.0501C29.5711 39.9721 28.7148 39.0774 27.6515 39.0648ZM27.6031 42.0853C27.0328 42.0774 26.5672 41.6013 26.564 41.0232C26.5617 40.438 27.0453 39.95 27.6258 39.9524C28.2093 39.954 28.6797 40.4388 28.6734 41.0319C28.6672 41.6273 28.1929 42.0932 27.6031 42.0853Z" fill="#081733"/>
<path d="M33.0985 25.5675C32.3797 26.0027 31.6508 26.422 30.9219 26.8397C30.6828 26.9763 30.4336 26.9068 30.3086 26.6984C30.1742 26.4741 30.2399 26.223 30.4946 26.0698C31.0219 25.7531 31.5555 25.4467 32.1266 25.1127C30.8696 24.3791 29.6555 23.6699 28.4055 22.9395V27.2733C28.5055 27.2203 28.593 27.1682 28.6844 27.1256C28.9172 27.0182 29.1555 27.0853 29.2735 27.2859C29.3938 27.492 29.3461 27.7407 29.1282 27.8805C28.8321 28.0708 28.5289 28.2525 28.2157 28.4088C27.9071 28.5636 27.5953 28.3938 27.5211 28.055C27.5024 27.9698 27.4992 27.8797 27.4992 27.7913C27.4985 26.0058 27.4938 24.2211 27.5063 22.4365C27.5071 22.254 27.5735 22.0416 27.6821 21.9003C27.8289 21.7084 28.0649 21.7194 28.2696 21.8387C29.8828 22.7768 31.4969 23.7142 33.1047 24.6626C33.4922 24.8916 33.4875 25.3314 33.0985 25.5675Z" fill="#081733"/>
</g>
<defs>
<clipPath id="clip0_634_7238">
<rect width="30" height="30" fill="white" transform="translate(15 15)"/>
</clipPath>
</defs>
</svg>
