<svg width="60" height="60" viewBox="0 0 60 60" fill="none" xmlns="http://www.w3.org/2000/svg">
<circle cx="30" cy="30" r="30" fill="#FFF5DC"/>
<g clip-path="url(#clip0_634_7206)">
<path d="M44.0836 32.2752C43.49 30.0732 42.8977 27.8707 42.3158 25.6658C42.2695 25.4883 42.29 25.2855 42.3146 25.0992C42.3404 24.9076 42.4172 24.723 42.4576 24.5326C42.5977 23.8723 42.3135 23.2482 41.7492 22.8984C41.6332 22.827 41.5236 22.6852 41.4873 22.5545C41.1076 21.1834 40.742 19.8082 40.3746 18.4336C40.0934 17.3801 39.3504 16.9465 38.2887 17.2307C35.4832 17.9807 32.6795 18.7389 29.8723 19.4824C29.6777 19.534 29.4463 19.5357 29.2518 19.4842C26.9051 18.8654 24.5643 18.2256 22.217 17.6121C21.9264 17.5365 21.6035 17.591 21.2971 17.5676C21.1939 17.56 21.0691 17.5271 20.9982 17.4592C20.5957 17.0754 20.1949 16.6881 19.8146 16.2826C19.2533 15.6844 18.6574 15.1506 17.8125 15H17.168C16.9576 15.068 16.7396 15.1189 16.5381 15.2074C15.7553 15.5508 15.2607 16.1414 15.0604 16.9752C15.0445 17.0408 15.0205 17.1041 15 17.168V17.8711C15.1617 18.6779 15.6779 19.2469 16.2457 19.7971C17.1504 20.673 18.0258 21.5789 18.924 22.4613C19.0893 22.623 19.1332 22.7625 19.0717 22.9916C17.7445 27.9217 16.4268 32.8547 15.1066 37.7871C15.0744 37.9072 15.0357 38.0256 15 38.1445V38.5547C15.1078 38.7791 15.1945 39.0182 15.3287 39.2256C15.5531 39.5725 15.9152 39.7236 16.3002 39.8262C20.0449 40.8281 23.7885 41.8313 27.5332 42.8326C30.1957 43.5445 32.8594 44.2535 35.5219 44.9648C35.5383 44.9695 35.5518 44.9877 35.5664 45H36.0938C36.8432 44.7896 37.2012 44.2635 37.3828 43.5299C37.7578 42.0182 38.1826 40.5187 38.577 39.0117C38.6297 38.8096 38.7152 38.7111 38.9285 38.6561C40.4549 38.2605 41.9719 37.827 43.5029 37.4479C44.2436 37.2645 44.7832 36.9105 45 36.1523V35.625C44.6941 34.5082 44.3848 33.3926 44.0836 32.2752ZM31.6236 20.0555C33.965 19.4262 36.3059 18.7945 38.6484 18.1705C39.0381 18.0668 39.2707 18.1957 39.3709 18.5602C39.7096 19.8 40.0389 21.0428 40.3705 22.285C40.3822 22.3295 40.3852 22.3764 40.3998 22.4766C37.4479 21.6855 34.5316 20.9045 31.6154 20.1234C31.6184 20.1012 31.6207 20.0783 31.6236 20.0555ZM22.4473 21.7582C22.043 21.3346 21.6229 20.9256 21.2098 20.5107C21.1617 20.4627 21.1172 20.4117 21.0598 20.3496C21.3018 20.1316 21.5379 19.9184 21.7518 19.7256C24.0674 22.0383 26.4117 24.3803 28.7531 26.7193C28.5521 26.9221 28.3289 27.1477 28.0436 27.4365C27.9867 27.351 27.9404 27.2484 27.8666 27.174C26.6057 25.9078 25.3418 24.6451 24.0785 23.3818C24.0369 23.3402 23.9965 23.298 23.9537 23.2576C23.666 22.9822 23.3766 22.957 23.1586 23.1873C22.9535 23.4041 22.9799 23.6947 23.2465 23.9625C24.5496 25.2691 25.8557 26.5729 27.16 27.8777C27.2344 27.9521 27.3047 28.0301 27.3826 28.1121C27.14 28.3459 26.9104 28.5674 26.6918 28.7783C24.3568 26.4451 22.0102 24.1002 19.6711 21.7623C19.8844 21.542 20.1064 21.3129 20.3443 21.0674C20.7363 21.4582 21.1219 21.842 21.5074 22.2258C21.5906 22.3084 21.6691 22.3969 21.7594 22.4707C21.9891 22.6588 22.2562 22.6541 22.4479 22.466C22.6488 22.2697 22.6611 21.982 22.4473 21.7582ZM29.3291 27.7084C29.5863 28.4812 29.8541 29.2852 30.1436 30.1535C29.2787 29.8658 28.4748 29.5986 27.6891 29.3373C28.2398 28.7906 28.7795 28.2539 29.3291 27.7084ZM17.475 19.6266C17.0719 19.1994 16.6195 18.7939 16.2592 18.3193C15.8203 17.741 15.9621 16.8932 16.5023 16.4057C17.0467 15.9146 17.884 15.8672 18.4313 16.3535C18.8373 16.7145 19.1848 17.141 19.5598 17.5406C18.8883 18.2127 18.1992 18.9018 17.475 19.6266ZM18.9287 20.9848C18.7266 20.7744 18.5074 20.5459 18.2977 20.3279C18.951 19.6822 19.6482 18.9932 20.3309 18.3187C20.5189 18.5098 20.7445 18.7395 20.9543 18.9527C20.3004 19.609 19.6084 20.3033 18.9287 20.9848ZM36.3709 43.4104C36.2227 43.9652 36.0281 44.0771 35.4797 43.9301C29.1721 42.2391 22.8639 40.5475 16.5562 38.8559C16.0723 38.7258 15.9445 38.516 16.0711 38.0432C17.3443 33.2877 18.6193 28.5334 19.8943 23.7791C19.9131 23.707 19.9389 23.6373 19.9611 23.5664C19.9963 23.5406 20.032 23.5143 20.0672 23.4885C20.1199 23.5816 20.1551 23.693 20.2277 23.7662C22.2064 25.7508 24.1863 27.7342 26.175 29.7088C26.3344 29.867 26.5477 29.9965 26.7598 30.0715C27.7061 30.4061 28.6617 30.7148 29.6133 31.0354C29.9443 31.1473 30.2678 31.2006 30.607 31.0453C30.6967 31.0043 30.8338 31.0406 30.9416 31.0693C32.7023 31.5393 34.4625 32.0139 36.2227 32.4867C36.2889 32.5043 36.3545 32.5225 36.4213 32.5354C36.7078 32.591 36.9533 32.4586 37.0271 32.2113C37.108 31.94 36.982 31.6787 36.6902 31.5873C36.2719 31.4566 35.8459 31.3506 35.4223 31.2369C34.0852 30.8789 32.7486 30.5197 31.4098 30.1676C31.2211 30.1184 31.1437 30.0316 31.0816 29.833C30.7436 28.7543 30.3803 27.6832 30.0076 26.6162C29.9496 26.4504 29.8172 26.2986 29.6895 26.1709C27.2842 23.7568 24.8748 21.3469 22.4625 18.9393C22.3811 18.8578 22.2656 18.8104 22.166 18.7471C22.193 18.7143 22.2199 18.682 22.2469 18.6498C23.1012 18.8783 23.9555 19.1062 24.8098 19.3354C30.1857 20.7762 35.5617 22.2176 40.9371 23.6596C41.4609 23.7996 41.5699 23.9871 41.4293 24.5127C39.7441 30.8121 38.0578 37.1115 36.3709 43.4104ZM43.466 36.4078C41.9813 36.808 40.4953 37.2035 38.9555 37.616C39.873 34.1906 40.7754 30.8227 41.7006 27.368C41.7551 27.5139 41.7873 27.5848 41.8072 27.658C42.5186 30.3023 43.2299 32.9461 43.9389 35.591C44.0672 36.0709 43.9477 36.2777 43.466 36.4078Z" fill="#081733"/>
<path d="M35.4914 37.9617C35.4153 38.2681 35.1411 38.4029 34.769 38.3074C34.3448 38.1984 33.9229 38.08 33.4993 37.9664C30.3012 37.1086 27.1026 36.2508 23.9045 35.3929C23.8389 35.3754 23.7721 35.359 23.71 35.332C23.4709 35.2295 23.3497 34.9992 23.4077 34.766C23.4698 34.5199 23.6643 34.3763 23.9942 34.3881C24.4184 34.4994 24.9082 34.6265 25.3975 34.7578C28.5768 35.6103 31.7561 36.464 34.9354 37.3177C34.9635 37.3248 34.9928 37.3283 35.0209 37.3359C35.3813 37.4408 35.5612 37.6799 35.4914 37.9617Z" fill="#081733"/>
<path d="M36.2602 35.0953C36.1846 35.3625 35.9151 35.5019 35.6022 35.4211C34.9606 35.2547 34.3213 35.0818 33.6815 34.9107C30.7079 34.1133 27.7342 33.3158 24.7612 32.516C24.6405 32.4832 24.511 32.4457 24.4137 32.373C24.2332 32.2389 24.1717 32.0461 24.2514 31.8269C24.3358 31.5955 24.5116 31.4971 24.811 31.5023C25.1983 31.6043 25.6413 31.7185 26.083 31.8369C29.2641 32.6894 32.4446 33.5426 35.625 34.3951C35.71 34.418 35.7961 34.4361 35.8788 34.4637C36.1799 34.5656 36.3358 34.8264 36.2602 35.0953Z" fill="#1B1B1B"/>
<path d="M38.6057 26.2213C38.6174 26.5963 38.3115 26.8266 37.9412 26.7305C37.0172 26.492 36.0955 26.2442 35.1738 25.9975C33.8098 25.6324 32.4463 25.2662 31.0822 24.9C31.026 24.8848 30.9697 24.869 30.9141 24.8508C30.5818 24.7447 30.4324 24.5027 30.5197 24.2127C30.6018 23.9385 30.8508 23.8096 31.1736 23.8951C32.2752 24.1852 33.3756 24.4828 34.476 24.7764C35.6713 25.0957 36.866 25.4145 38.0613 25.7315C38.3408 25.8053 38.5799 25.9149 38.6057 26.2213Z" fill="#1B1B1B"/>
<path d="M37.7321 29.4381C37.6319 29.5594 37.4561 29.6174 37.3494 29.683C36.7617 29.5248 36.2449 29.3848 35.7276 29.2471C34.6729 28.9658 33.6176 28.6863 32.5629 28.4056C32.4973 28.3881 32.4305 28.3717 32.3666 28.3482C32.0819 28.2451 31.9377 27.9861 32.0192 27.7283C32.103 27.4605 32.352 27.3187 32.6444 27.3937C33.3428 27.5736 34.0383 27.7635 34.735 27.9498C35.6104 28.1836 36.4869 28.4156 37.3612 28.6535C37.7842 28.7683 37.9705 29.1492 37.7321 29.4381Z" fill="#081733"/>
<path d="M22.2451 31.364C22.1649 31.6043 21.9674 31.7449 21.7237 31.6898C21.1834 31.5685 20.6473 31.425 20.1205 31.2568C19.8844 31.1812 19.7895 30.9621 19.8428 30.7107C19.8961 30.457 20.0737 30.3404 20.3942 30.307C20.8981 30.4523 21.4746 30.5947 22.0319 30.7904C22.2656 30.8724 22.3248 31.1261 22.2451 31.364Z" fill="#081733"/>
<path d="M21.4817 34.224C21.4119 34.4842 21.2209 34.5979 20.8729 34.5873C20.417 34.459 19.8803 34.3242 19.3553 34.152C19.1162 34.0735 19.0248 33.8537 19.0852 33.6047C19.1479 33.344 19.3383 33.1776 19.5967 33.2326C20.1457 33.351 20.6901 33.4981 21.2244 33.6709C21.4611 33.7471 21.5479 33.9785 21.4817 34.224Z" fill="#1B1B1B"/>
</g>
<defs>
<clipPath id="clip0_634_7206">
<rect width="30" height="30" fill="white" transform="translate(15 15)"/>
</clipPath>
</defs>
</svg>
